<?xml version="1.0" encoding="UTF-8" standalone="no"?>
<!-- Created with Inkscape (http://www.inkscape.org/) -->

<svg
   version="1.1"
   id="svg1"
   width="2778.6667"
   height="2778.6667"
   viewBox="0 0 2778.6667 2778.6667"
   xmlns="http://www.w3.org/2000/svg"
   xmlns:svg="http://www.w3.org/2000/svg">
  <defs
     id="defs1" />
  <g
     id="g1">
    <path
       style="fill:#000000"
       d="m 597.66668,2764.3319 -587.000013,-0.3348 v -591.7919 c 0,-571.625 0.08309,-591.8671 2.438321,-593.9985 1.893371,-1.7135 5.153694,-2.2067 14.587978,-2.2067 6.682311,0 12.520477,0.6 12.973702,1.3334 1.270097,2.055 355.644592,1.8221 357.701842,-0.2352 1.20243,-1.2024 2.1777,-1.0172 4.17885,0.7939 2.57077,2.3265 2.61674,6.1085 3.0315,249.4288 0.41306,242.3182 0.47085,247.1215 3.00716,249.9237 l 2.58601,2.8572 10.5109,-10.3842 c 5.78099,-5.7113 11.43069,-12.1842 12.55488,-14.3842 2.87821,-5.6326 16.55345,-19.3333 19.29728,-19.3333 1.25687,0 2.68507,-1.35 3.17377,-3 1.22561,-4.1381 38.03416,-41 40.94057,-41 1.34702,0 2.35058,-0.9932 2.35058,-2.3263 0,-1.3167 127.86611,-130.1971 294.66668,-297.0041 162.06667,-162.0728 294.66671,-295.4517 294.66671,-296.3976 0,-0.9458 2.7821,-4.6939 6.1824,-8.3292 7.7782,-8.3155 11.3538,-8.6348 18.0229,-1.6095 2.6105,2.75 5.1135,6.05 5.5621,7.3333 0.4485,1.2833 1.6005,2.3333 2.5598,2.3333 2.1114,0 18.9758,17.0483 20.114,20.3334 0.4446,1.2833 1.5998,2.3333 2.567,2.3333 1.885,0 13.6819,11.6055 14.5001,14.2647 0.2704,0.8789 51.6417,52.9385 114.1583,115.6879 62.5167,62.7494 113.6667,114.5476 113.6667,115.1071 0,1.897 -16.6478,17.3244 -19.6667,18.225 -1.715,0.5117 -3,1.9572 -3,3.3751 0,2.6811 -5.8841,8.0069 -8.8464,8.0069 -1.0011,0 -1.8202,1.0954 -1.8202,2.4342 0,2.9327 -5.3361,8.2324 -8.2889,8.2324 -1.1643,0 -2.7277,1.752 -3.4741,3.8934 -0.8866,2.5431 -2.4345,4.0458 -4.4638,4.3333 -1.9787,0.2803 -3.949,2.1282 -5.4271,5.0901 -1.3037,2.6125 -142.2513,144.5854 -321.6667,324.0066 -180.90322,180.9091 -319.34611,320.3652 -319.34611,321.6832 0,2.2051 12.93713,2.3268 247.42099,2.3268 168.00372,0 248.24882,0.443 250.00002,1.3802 2.773,1.4841 3.409,5.2565 1.2501,7.4153 -0.8676,0.8677 -1.4461,68.8305 -1.6666,195.8223 -0.2231,128.4552 -0.7906,194.5311 -1.6712,194.6045 -0.7333,0.061 -265.48331,-0.04 -588.33332,-0.2238 z m 985.00002,-199.6652 v -199.3333 h 391.3334 391.3333 V 1974.83 c 0,-345.4876 0.2306,-390.6948 2,-392.1633 1.1,-0.9129 2,-2.7864 2,-4.1632 0,-3.0361 0.5342,-3.0886 4.5634,-0.4485 2.698,1.7678 3.3988,1.7924 5.0153,0.1759 3.1086,-3.1086 6.8713,-3.6423 10.907,-1.547 3.3252,1.7264 27.2191,1.9828 184.7334,1.9828 136.9145,0 181.2957,-0.3815 182.4827,-1.5685 1.2025,-1.2024 2.1982,-0.9986 4.2667,0.8733 2.694,2.4381 2.6982,2.9219 2.6982,314.1565 0,180.7973 -0.4986,312.0229 -1.1872,312.4484 -0.653,0.4036 -1.6215,12.589 -2.1521,27.0787 -0.5307,14.4897 -1.4149,26.945 -1.9649,27.6783 -0.5501,0.7333 -1.3593,6.681 -1.7984,13.2171 -0.439,6.536 -1.4206,12.506 -2.1812,13.2666 -0.7606,0.7607 -1.402,3.813 -1.4253,6.783 -0.023,2.97 -0.9233,6.5646 -2,7.9881 -1.3727,1.8149 -1.9576,6.052 -1.9576,14.181 0,7.6901 -0.6705,12.8784 -1.9918,15.4118 -1.0955,2.1005 -1.9955,5.1337 -2,6.7404 0,1.6067 -0.6082,3.2921 -1.3415,3.7453 -0.7334,0.4533 -1.3524,2.4387 -1.3758,4.4121 -0.023,1.9733 -0.9233,4.7526 -2,6.1761 -1.0766,1.4235 -1.9576,4.5412 -1.9576,6.9283 0,2.4568 -2.3142,8.8123 -5.3333,14.6465 -2.9333,5.6685 -5.3524,11.5508 -5.3757,13.0717 -0.023,1.5209 -0.9233,3.93 -2,5.3535 -1.0767,1.4235 -1.9576,3.8979 -1.9576,5.4987 0,1.6008 -1.4639,5.5362 -3.2531,8.7452 -1.7892,3.209 -3.5704,7.3346 -3.9582,9.1679 -1.5837,7.4862 -5.4255,16.8905 -8.3482,20.4357 -1.709,2.0729 -3.1072,4.8089 -3.1072,6.08 0,2.7885 -8.8528,21.0796 -10.5062,21.7071 -0.6432,0.2442 -3.7206,5.5439 -6.8388,11.7772 -3.1181,6.2334 -7.091,13.0294 -8.8288,15.1023 -1.7377,2.073 -3.1595,4.5889 -3.1595,5.5911 0,1.0022 -1.1137,2.6061 -2.475,3.5644 -1.3612,0.9582 -4.0605,5.0986 -5.9983,9.2008 -1.9379,4.1022 -4.7242,8.5452 -6.1918,9.8733 -1.4675,1.3281 -2.6683,3.2663 -2.6683,4.3071 0,1.0408 -3.3,5.352 -7.3333,9.5806 -4.0333,4.2285 -7.3333,8.4183 -7.3333,9.3107 0,0.8924 -4.5789,6.359 -10.1752,12.1481 -5.5964,5.7891 -11.23,12.2047 -12.5193,14.257 -2.7164,4.3241 -61.6296,62.3184 -71.852,70.7313 -3.787,3.1167 -7.5462,5.6667 -8.3537,5.6667 -0.8076,0 -3.9776,2.25 -7.0447,5 -5.2296,4.6891 -8.734,7.0794 -18.4749,12.6016 -2.2006,1.2475 -6.1564,4.3039 -8.7907,6.7921 -2.6342,2.4881 -7.4895,5.7569 -10.7895,7.264 -3.3,1.5071 -7.4953,4.3439 -9.3228,6.304 -3.3144,3.555 -65.2585,35.3716 -68.8652,35.3716 -1.0454,0 -4.8608,1.5 -8.4787,3.3333 -3.6179,1.8334 -7.5151,3.3334 -8.6604,3.3334 -1.1453,0 -5.6481,1.8 -10.0063,4 -4.3581,2.2 -10.0056,4 -12.5499,4 -2.5443,0 -4.9489,0.5225 -5.3436,1.1611 -0.3947,0.6386 -2.4403,1.5056 -4.5457,1.9267 -2.1054,0.4211 -7.1794,2.2986 -11.2756,4.1722 -4.0962,1.8737 -8.9175,3.4066 -10.714,3.4066 -1.7965,0 -4.9849,0.8964 -7.0854,1.9918 -2.1005,1.0955 -6.0691,1.9955 -8.8191,2 -2.75,0 -5,0.6082 -5,1.3416 0,0.7333 -2.9265,1.3333 -6.5034,1.3333 -4.1542,0 -7.103,0.7225 -8.1633,2 -1.2301,1.4822 -4.5094,2 -12.6666,2 -8.1573,0 -11.4366,0.5178 -12.6667,2 -1.1825,1.4248 -4.3106,2 -10.8768,2 -5.7046,0 -10.3424,0.7238 -12.1701,1.8993 -1.8225,1.172 -6.2475,1.8664 -11.5576,1.8135 -5.3255,-0.053 -8.7976,0.4935 -9.1111,1.4341 -0.3774,1.132 -84.5059,1.5198 -329.7289,1.5198 h -329.2222 z m 79.2761,-1185.2336 c -1.1653,-1.7784 -3.8791,-3.8472 -6.0307,-4.5973 -2.1516,-0.75 -3.9121,-2.2272 -3.9121,-3.2825 0,-2.289 -19.6146,-22.2199 -21.8673,-22.2199 -1.7986,0 -13.5616,-11.8073 -14.3217,-14.3756 -0.7551,-2.5514 -71.938,-73.6244 -73.7382,-73.6244 -1.7572,0 -9.4857,-7.7963 -10.2424,-10.3323 -0.7411,-2.4834 -78.7805,-80.3344 -80.5289,-80.3344 -1.7186,0 -6.7031,-5.145 -7.4848,-7.7258 -0.8576,-2.8311 -49.378,-50.9409 -51.3757,-50.9409 -1.0122,0 -2.463,-1.6378 -3.224,-3.6395 -0.7611,-2.0017 -2.0518,-4.0524 -2.8682,-4.5569 -0.9648,-0.5963 0,-2.6056 2.7501,-5.7402 2.329,-2.6526 4.2345,-5.5586 4.2345,-6.4578 0,-2.4991 44.3835,-46.2722 46.9175,-46.2722 2.3441,0 7.7491,-5.9613 7.7491,-8.5466 0,-2.3396 18.9866,-20.4917 21.9847,-21.0183 1.4583,-0.2562 2.8579,-1.6589 3.1104,-3.1171 0.6182,-3.5715 58.929,-61.98471 61.8759,-61.98471 1.3499,0 3.1167,-1.81911 4.2086,-4.33333 1.1299,-2.60148 110.3772,-112.76323 273.3513,-275.63946 149.308,-149.21836 271.4692,-271.46837 271.4692,-271.66667 0,-0.1983 -112.802,-0.36055 -250.6711,-0.36055 h -250.671 l 0.3377,-199.00001 0.3377,-199.00000331 590.4449,-0.33482727 c 324.7448,-0.18415499 590.2255,0.11584502 589.9573,0.66666669 -0.2683,0.55082169 -1.2898,2.59663369 -2.2701,4.54624899 -1.5259,3.0347918 -1.4718,4.1672213 0.3761,7.8715179 1.9792,3.967332 2.1585,52.651034 2.1585,586.046327 v 581.7196 l -2.7954,1.9579 c -2.4246,1.6983 -28.8618,1.981 -199.3333,2.1319 l -196.538,0.1739 V 934.72294 684.00002 h -4.5477 c -4.042,0 -4.8576,0.63998 -7.3334,5.7543 -1.532,3.16486 -2.7856,6.04453 -2.7856,6.39927 0,1.80543 -63.2306,63.40904 -66.4823,64.7716 -2.0896,0.87563 -4.5418,3.38554 -5.4501,5.57848 -1.8132,4.37727 -32.6438,35.54158 -37.6109,38.01797 -1.7049,0.84995 -3.2746,2.45323 -3.4882,3.56286 -0.2137,1.10962 -125.1691,126.79258 -277.6785,279.2955 -152.5095,152.5028 -277.29,278.0658 -277.29,279.0288 0,2.7413 -13.4374,16.2579 -16.1627,16.2579 -1.3433,0 -3.3959,-1.4551 -4.5612,-3.2336 z M 10.666667,847.23308 c 0,-298.43848 0.231859,-337.76564 2,-339.23307 1.470213,-1.22016 2.011233,-4.53043 2.042405,-12.49659 0.02952,-7.54347 0.654076,-11.6462 2.055155,-13.50034 1.330394,-1.7606 1.913217,-5.12382 1.719157,-9.92052 -0.186948,-4.62089 0.277342,-7.44723 1.278178,-7.78084 0.953128,-0.31771 1.588462,-3.49777 1.614176,-8.07948 0.02536,-4.51873 0.829227,-8.59583 2.000001,-10.14373 1.104083,-1.45973 1.976083,-5.52907 2,-9.33334 0.02392,-3.80427 0.895916,-7.8736 2,-9.33333 1.076677,-1.4235 1.957595,-3.98164 1.957595,-5.68476 0,-1.70312 0.575752,-4.13844 1.27945,-5.41183 0.703697,-1.27338 1.865838,-5.01524 2.582536,-8.31524 2.531787,-11.65748 3.793458,-15.39883 7.280623,-21.58992 1.938232,-3.44113 3.524058,-7.49927 3.524058,-9.0181 0,-1.51882 0.524501,-3.80335 1.165557,-5.07674 1.609631,-3.19734 6.819747,-16.13241 8.451302,-20.98191 0.740164,-2.2 2.179165,-5.69862 3.19778,-7.77472 1.018616,-2.07609 1.852028,-5.15262 1.852028,-6.83674 0,-1.68411 0.958,-3.85709 2.128889,-4.82884 1.170889,-0.97175 8.090366,-13.49522 15.376617,-27.82993 12.616604,-24.82145 15.286708,-29.43683 23.108835,-39.94447 1.862111,-2.50143 3.385661,-5.24684 3.385661,-6.10092 0,-0.85408 1.5,-2.96205 3.33333,-4.68438 1.83334,-1.72233 3.33334,-3.86394 3.33334,-4.75914 0,-0.8952 1.48963,-3.04061 3.31029,-4.76758 1.82067,-1.72697 3.32067,-3.86992 3.33334,-4.76211 0.0127,-0.89219 2.72303,-4.66221 6.02303,-8.37784 3.3,-3.71562 6,-7.52339 6,-8.46171 0,-0.93833 1.85357,-3.4683 4.11904,-5.62217 2.26547,-2.15386 5.02385,-5.71612 6.12973,-7.91612 C 140.65488,203.88007 215.93741,128 218.28021,128 c 0.89693,0 4.67084,-2.7 8.38646,-6 3.71563,-3.3 7.53107,-6 8.47876,-6 0.94769,0 3.13225,-1.5 4.85458,-3.33333 1.72232,-1.83333 3.89388,-3.33333 4.82567,-3.33333 0.9318,0 4.27721,-2.76591 7.43425,-6.14646 3.27861,-3.510722 9.22419,-7.798065 13.86494,-9.997981 4.46867,-2.118344 9.21166,-5.05244 10.53998,-6.520215 1.32832,-1.467775 3.20125,-2.668682 4.16208,-2.668682 0.96083,0 3.71783,-1.65 6.12668,-3.666666 6.19451,-5.185982 12.2546,-8.333334 16.04547,-8.333334 1.78986,0 4.26296,-1.114562 5.49577,-2.476804 2.61698,-2.891728 48.22267,-25.881995 52.20293,-26.316002 1.48378,-0.16179 5.62314,-1.849596 9.19859,-3.75068 3.57545,-1.901083 7.52209,-3.456515 8.77031,-3.456515 1.24822,0 5.17214,-1.543351 8.71981,-3.429668 3.54768,-1.886318 8.28704,-3.454588 10.53192,-3.485045 2.24488,-0.03046 5.41049,-0.887107 7.03469,-1.903666 1.6242,-1.016558 4.0242,-1.851984 5.33333,-1.856502 1.30914,-0.0045 4.09883,-0.904518 6.19932,-2 2.1005,-1.095482 5.17703,-1.991786 6.83675,-1.991786 1.65971,0 3.76459,-0.9 4.67751,-2 0.99071,-1.193728 3.90535,-2 7.22993,-2 3.06354,0 6.25189,-0.681818 7.08522,-1.515152 0.83334,-0.833333 3.94777,-1.515151 6.92097,-1.515151 2.9732,0 6.08485,-0.818182 6.91478,-1.818182 0.95437,-1.149941 4.32921,-1.818182 9.18244,-1.818182 5.19427,0 8.20976,-0.646176 9.33333,-2.0000001 1.12357,-1.3538239 4.13906,-2 9.33333,-2 5.19427,0 8.20976,-0.6461762 9.33334,-2.0000001 1.35502,-1.6327057 5.77809,-2.0000001 24.08457,-2.0000001 13.51156,0 22.75225,-0.5299603 23.24876,-1.3333333 C 541.2124,0.45034036 651.3472,0 866.74538,0 H 1192 v 3.1700738 c 0,1.7435406 -0.9,3.9170075 -2,4.8299264 -1.7606,1.46118 -2,24.3464618 -2,191.1999198 0,165.27726 0.2529,189.90111 1.9755,192.36049 4.7536,6.78669 26.7031,6.38998 -393.18036,7.10627 l -390.79513,0.66667 -0.32655,391.78303 c -0.17961,215.48062 -0.61353,392.24732 -0.96428,392.81492 -0.35074,0.5675 -89.1538,0.9965 -197.34012,0.9534 l -196.702393,-0.078 z"
       id="path1" />
  </g>
</svg>
