<?xml version="1.0" encoding="UTF-8" standalone="no"?>
<!-- Created with Inkscape (http://www.inkscape.org/) -->

<svg
   xmlns:dc="http://purl.org/dc/elements/1.1/"
   xmlns:cc="http://creativecommons.org/ns#"
   xmlns:rdf="http://www.w3.org/1999/02/22-rdf-syntax-ns#"
   xmlns:svg="http://www.w3.org/2000/svg"
   xmlns="http://www.w3.org/2000/svg"
   xmlns:sodipodi="http://sodipodi.sourceforge.net/DTD/sodipodi-0.dtd"
   xmlns:inkscape="http://www.inkscape.org/namespaces/inkscape"
   version="1.1"
   id="svg74"
   width="188"
   height="210"
   viewBox="0 0 188 210"
   sodipodi:docname="MAD_Lions_logo.svg"
   inkscape:version="0.92.5 (2060ec1f9f, 2020-04-08)"
   inkscape:export-filename="C:\Users\ET\Downloads\MAD_Lionslogo_profile.png"
   inkscape:export-xdpi="96"
   inkscape:export-ydpi="96">
  <defs
     id="defs78" />
  <sodipodi:namedview
     pagecolor="#ffffff"
     bordercolor="#666666"
     borderopacity="1"
     objecttolerance="10"
     gridtolerance="10"
     guidetolerance="10"
     inkscape:pageopacity="0"
     inkscape:pageshadow="2"
     inkscape:window-width="1920"
     inkscape:window-height="1017"
     id="namedview76"
     showgrid="false"
     inkscape:pagecheckerboard="false"
     inkscape:zoom="2.2344574"
     inkscape:cx="213.47538"
     inkscape:cy="141.20267"
     inkscape:window-x="-8"
     inkscape:window-y="-8"
     inkscape:window-maximized="1"
     inkscape:current-layer="svg74" />
  <g
     id="g84"
     transform="matrix(0.36474379,0,0,0.36474379,-7.7630187,0.34415)">
    <path
       style="fill:gold"
       d="m 239.4531,567.4642 c 0.65512,-4.36865 0.47993,-4.93808 -2.44894,-7.95991 l -3.15454,-3.25465 4.4729,-0.67075 c 3.70687,-0.55588 4.68009,-1.17099 5.68277,-3.59167 2.15285,-5.19744 3.57834,-5.48511 5.34172,-1.07797 1.44402,3.60896 1.98992,4.01873 6.19348,4.64909 l 4.60989,0.6913 -3.15454,3.25465 c -2.92887,3.02183 -3.10406,3.59126 -2.44894,7.95991 l 0.7056,4.70526 -4.12625,-2.10505 -4.12625,-2.10506 -4.12625,2.10506 -4.12625,2.10505 z m 32.19431,-0.2142 c 0.48922,-4.20069 0.25248,-5.03036 -2.04711,-7.17431 -1.43017,-1.33338 -2.6003,-2.75632 -2.6003,-3.16211 0,-0.40578 1.81207,-1.04393 4.02683,-1.41811 3.42051,-0.57789 4.33832,-1.29091 6.09557,-4.7354 l 2.06875,-4.05507 2.18568,3.8975 c 1.78878,3.18975 2.95176,4.05949 6.40442,4.78958 2.32031,0.49065 4.21875,1.19396 4.21875,1.56291 0,0.36896 -1.29155,1.90821 -2.8701,3.42056 -2.54637,2.43958 -2.81252,3.26061 -2.35958,7.27905 l 0.51052,4.52932 -4.1091,-2.09631 -4.10911,-2.0963 -3.28131,2.00061 c -1.80473,1.10033 -3.59762,2.00229 -3.98421,2.00434 -0.38658,0.002 -0.45395,-2.13376 -0.1497,-4.74626 z m 32.59251,0.31378 c 0.46566,-4.1313 0.21601,-4.90777 -2.35958,-7.33871 C 300.29615,558.72985 299,557.19511 299,556.81452 c 0,-0.38059 1.95609,-0.98531 4.34686,-1.34383 3.86289,-0.57927 4.57064,-1.11391 6.35687,-4.80197 l 2.01002,-4.15013 2.13129,4.17766 c 1.91166,3.74717 2.60394,4.24853 6.71831,4.86552 l 4.58703,0.68787 -3.19981,3.30136 c -2.95501,3.0488 -3.14733,3.65125 -2.51391,7.87518 0.37724,2.5156 0.45904,4.57382 0.18177,4.57382 -0.27726,0 -2.07274,-0.92552 -3.98996,-2.0567 l -3.48585,-2.05671 -4.21173,2.14867 -4.21173,2.14866 z M 176.76947,557.60314 C 146.82419,543.82337 123.68582,527.82539 101.48524,505.55125 33.87918,437.72121 10.71982,339.15571 41.087405,248.5 46.431353,232.54682 57.711865,208.37971 65.592893,196 86.394627,163.32413 116.71573,133.24472 148.5,113.75376 156.74288,108.69901 171.21579,101 172.47504,101 172.76377,101 173,109.91097 173,120.80216 v 19.80215 l -9.25,5.94275 C 138.02483,163.07442 114.46925,186.67639 97.427684,213 75.685569,246.5844 63.935922,286.77821 63.888685,327.73194 c -0.01751,15.18294 2.081165,36.41053 4.129422,41.76806 0.420545,1.1 0.797071,-4.36743 0.836725,-12.14985 0.199405,-39.13455 12.720988,-78.52221 36.015118,-113.28849 5.24178,-7.82331 18.17528,-23.94016 19.27306,-24.01678 2.3295,-0.16259 1.27791,5.01823 -3.72334,18.34365 -3.1064,8.27675 -5.94823,17.08777 -6.31518,19.58005 -0.99493,6.75748 0.52112,15.46103 3.94149,22.62776 l 3.04402,6.37818 -4.48424,11.26274 c -8.65958,21.74964 -12.02165,39.64833 -11.9771,63.76274 0.032,17.30281 1.53775,30.52748 4.66833,41 1.33126,4.45336 1.35172,4.36527 1.97367,-8.5 1.28366,-26.5532 9.76046,-54.06455 23.65267,-76.76446 2.77205,-4.52955 5.88111,-9.30551 6.90901,-10.61325 l 1.86892,-2.3777 10.60686,7.8777 c 5.83377,4.33274 10.62599,8.44241 10.64937,9.13259 0.0583,1.72168 -6.24052,24.06454 -11.06249,39.24017 C 148.58278,377.71358 147,387.58559 147,404 c 0,14.77357 1.60751,26.44433 5.17155,37.54614 l 2.23241,6.95386 0.70511,-8.61731 c 1.06234,-12.98304 5.39258,-32.03127 8.38087,-36.86641 0.32159,-0.52035 2.51143,0.52461 4.86632,2.32213 2.35488,1.79753 8.97558,4.94399 14.71267,6.99215 5.73709,2.04816 10.98285,4.0691 11.65726,4.49098 2.00724,1.25566 -0.1894,7.01743 -5.21481,13.67846 -9.845,13.04923 -18.07852,33.15487 -20.47564,50 -3.7636,26.44775 3.1238,56.43014 17.89448,77.89858 1.74123,2.53078 2.80619,4.60142 2.3666,4.60142 -0.43959,0 -6.0769,-2.42859 -12.52735,-5.39686 z m 197.06697,-2.28865 c 6.46238,-10.48117 11.75314,-23.16069 14.38954,-34.4851 3.19461,-13.72211 3.12356,-36.58864 -0.15482,-49.82939 -3.74895,-15.14131 -10.84111,-30.33 -19.17067,-41.05624 -3.44707,-4.4389 -6.47283,-11.8038 -5.2852,-12.86449 0.48659,-0.43457 5.80369,-2.51869 11.81578,-4.63138 6.17472,-2.16984 12.80681,-5.27304 15.24192,-7.1318 l 4.31085,-3.29054 1.49953,3.58888 c 3.98746,9.54334 7.45224,26.86979 7.57599,37.88557 0.0811,7.2163 0.75588,5.96633 4.58876,-8.5 1.97196,-7.4427 2.6354,-12.88998 3.06355,-25.15392 0.62411,-17.87658 -0.42147,-27.14513 -4.69728,-41.63918 -1.57497,-5.3388 -5.30885,-18.15304 -8.29753,-28.47609 l -5.43395,-18.76919 11.0187,-8.09422 11.01869,-8.09423 1.85814,2.36342 c 3.53985,4.50244 11.95359,18.86758 15.28627,26.09895 8.82486,19.14844 14.32953,41.32888 15.43327,62.18658 l 0.63913,12.07788 1.70627,-7.5 c 5.81638,-25.56629 5.99116,-47.21961 0.59328,-73.5 -2.00285,-9.75115 -8.94209,-31.00609 -12.07466,-36.98475 -1.4398,-2.74792 -1.42336,-3.18431 0.20719,-5.5 0.97408,-1.38339 2.78766,-5.32189 4.03018,-8.75222 3.61624,-9.98375 2.64221,-18.1551 -4.37327,-36.68813 -5.09069,-13.44826 -6.25744,-19.35185 -3.6325,-18.37995 1.83978,0.6812 13.45481,15.57556 20.78131,26.64862 20.52938,31.02748 31.5462,64.20802 34.41248,103.64373 l 1.23653,17.0127 1.45126,-7.5 c 2.21468,-11.44527 2.10885,-52.56061 -0.16731,-65 -9.06276,-49.5287 -29.38155,-88.23448 -63.82592,-121.58363 -11.33762,-10.97712 -21.315,-18.94652 -33.64304,-26.8723 L 386,140.60431 V 120.80216 C 386,109.91097 386.23623,101 386.52496,101 c 1.29786,0 15.61739,7.70175 25.00071,13.44662 31.78647,19.46103 63.51296,51.38387 82.8987,83.41173 46.00484,76.00624 48.80006,170.3188 7.35438,248.14165 -24.98019,46.90547 -63.86243,84.30691 -112.27875,108.0027 -22.12292,10.82734 -21.49832,10.77503 -15.66356,1.31179 z m -151.0495,-12.86088 c -0.27961,-0.27961 -0.18557,-2.27368 0.20897,-4.43126 0.63694,-3.48316 0.39715,-4.22965 -2.13928,-6.65971 C 219.28548,529.85739 218,528.3111 218,527.92645 c 0,-0.38465 1.99786,-0.99896 4.43968,-1.36513 3.94392,-0.59143 4.56624,-1.04923 5.57296,-4.09962 1.63253,-4.94662 2.64656,-5.05004 4.96458,-0.50635 1.74394,3.4184 2.65523,4.12215 6.03834,4.66313 2.19144,0.35042 3.98444,0.94543 3.98444,1.32224 0,0.3768 -1.29507,1.92586 -2.87794,3.44234 -2.65086,2.53969 -2.80593,3.07773 -1.96531,6.81907 0.50195,2.234 0.69569,4.27876 0.43054,4.54391 -0.26515,0.26515 -2.11988,-0.53011 -4.12162,-1.76726 l -3.63953,-2.24935 -3.76541,2.11628 c -2.07097,1.16395 -3.99418,1.88751 -4.27379,1.6079 z m 32.57147,-4.05181 c 0.60555,-4.41803 0.41668,-5.03863 -2.42605,-7.97159 l -3.08274,-3.18057 4.44194,-0.66611 c 3.96252,-0.59422 4.6346,-1.09337 6.22706,-4.62482 0.98182,-2.17729 2.05429,-3.95413 2.38325,-3.94854 0.32897,0.006 1.33734,1.77078 2.24083,3.92264 1.49236,3.55441 2.07122,3.97672 6.32519,4.61465 l 4.68249,0.70218 -3.15454,3.25465 c -2.92887,3.02183 -3.10406,3.59126 -2.44894,7.95991 l 0.7056,4.70526 -4.12625,-2.10505 -4.12625,-2.10506 -4.14914,2.11673 -4.14914,2.11674 z m 31.66545,3.8482 c 0.0131,-0.4125 0.40853,-2.4056 0.8787,-4.42912 0.76741,-3.30282 0.56041,-3.9612 -2.02386,-6.43709 -1.58328,-1.51688 -2.8787,-3.06627 -2.8787,-3.44307 0,-0.37681 1.793,-0.97182 3.98444,-1.32224 3.42356,-0.54745 4.2883,-1.23277 6.14312,-4.86851 l 2.15869,-4.23138 2.03731,4.20649 c 1.81277,3.74285 2.51342,4.27789 6.35688,4.85425 2.37576,0.35627 4.31956,0.96247 4.31956,1.34712 0,0.38465 -1.29155,1.93675 -2.8701,3.4491 -2.54637,2.43958 -2.81252,3.26061 -2.35958,7.27905 l 0.51052,4.52932 -4.1947,-2.13997 -4.19469,-2.13998 -3.31376,2.04802 c -3.54723,2.1923 -4.59175,2.49003 -4.55383,1.29801 z m 33.0366,-3.5 c 0.72056,-3.86706 0.52825,-4.5246 -2.13427,-7.29761 C 316.31678,529.77621 315,528.1398 315,527.81594 c 0,-0.32387 1.9438,-0.88034 4.31956,-1.23661 3.84346,-0.57636 4.54411,-1.1114 6.35688,-4.85425 l 2.03731,-4.20649 2.1163,4.14827 c 1.80764,3.54327 2.70358,4.2475 6.14312,4.82861 2.21476,0.37418 4.02683,1.01233 4.02683,1.41811 0,0.40579 -1.17013,1.82873 -2.6003,3.16211 -2.29906,2.14346 -2.53627,2.97413 -2.04758,7.17036 l 0.55271,4.74605 -4.1052,-2.09432 -4.1052,-2.09432 -3.73337,2.09827 C 321.90771,542.05578 320.01188,543 319.74812,543 c -0.26376,0 -0.12321,-1.9125 0.31234,-4.25 z m -47.88417,-53.76986 c -2.37804,-0.49556 -6.65304,-1.97645 -9.5,-3.29088 C 255.43877,478.34774 224,453.21721 224,450.77343 c 0,-1.48653 4.89812,-4.27634 22.52161,-12.8276 24.38268,-11.83094 29.2266,-13.52632 35.9957,-12.59851 4.91481,0.67365 49.40922,21.61117 50.89184,23.94792 0.50003,0.7881 0.65105,2.1055 0.3356,2.92755 -1.12393,2.92891 -34.80246,28.52173 -40.30252,30.62648 -6.42598,2.45909 -15.38369,3.35666 -21.26594,2.13087 z m -37.5213,-55.80888 C 233.74474,428.16545 233,426.38508 233,425.21488 c 0,-3.17711 6.01833,-31.59569 6.87734,-32.47482 0.4084,-0.41797 1.7691,3.22186 3.02377,8.0885 1.25468,4.86665 2.60884,9.37852 3.00924,10.02638 0.51311,0.83024 4.1701,-0.45822 12.3892,-4.36504 18.85872,-8.96421 22.85365,-8.96015 41.57527,0.0423 6.31133,3.03484 11.78089,5.16913 12.15458,4.74287 0.37369,-0.42626 1.72837,-4.60002 3.01041,-9.27502 2.09182,-7.6279 3.96019,-12.08598 3.96019,-9.44933 0,0.52286 1.5633,8.25655 3.474,17.18597 5.17066,24.16447 5.00401,24.28396 -18.12001,12.99289 L 287.5,414.5 h -8.5 -8.5 l -16.8714,8.25 c -9.27927,4.5375 -16.97202,8.25 -17.09501,8.25 -0.12299,0 -0.96836,-0.82293 -1.8786,-1.82874 z M 201.55277,387.0023 C 187.67684,381.90132 184,379.20171 184,374.11469 c 0,-2.65574 1.07821,-6.79521 11.48716,-44.10136 2.53,-9.06767 4.4679,-17.61767 4.30642,-19 C 199.56072,309.0198 194.12278,304.46708 173.5,289 c -17.01252,-12.75939 -26.47921,-20.50956 -27.38632,-22.42058 -1.57105,-3.30973 -1.66184,-2.95459 6.28365,-24.57942 4.60697,-12.53858 7.61407,-17 11.45835,-17 0.95929,0 4.52528,2.02367 7.92443,4.49705 11.36243,8.26784 15.63294,10.34198 31.55715,15.32695 l 15.82948,4.95532 9.16663,9.61493 c 5.04165,5.28821 9.66796,9.61286 10.28071,9.61034 2.61293,-0.0108 3.2781,-24.59675 0.93429,-34.53362 -1.44328,-6.11902 -4.43756,-15.61879 -5.16858,-16.39807 -0.22036,-0.2349 -1.71045,0.82778 -3.31132,2.36151 l -2.91068,2.7886 -12.7835,-6.36151 -12.78349,-6.3615 -14.5454,0.45934 c -7.99997,0.25263 -18.54498,0.47763 -23.43336,0.5 -8.54415,0.0391 -8.96727,-0.0653 -10.93803,-2.69966 l -2.05006,-2.74032 2.36986,-5.75968 C 155.29724,197.09186 159.83937,186.625 164.08745,177 l 7.72377,-17.5 4.34439,-1.69876 c 2.38941,-0.93431 9.74439,-3.24915 16.34439,-5.14409 6.6,-1.89494 19.30516,-5.59357 28.23369,-8.21919 13.58496,-3.99494 16.63602,-4.59054 18.69952,-3.65035 1.81026,0.82482 4.85393,5.8543 11.44846,18.91795 C 265.21372,188.09711 275.9546,205 279.66384,205 c 3.3726,0 13.5521,-16.23214 28.83616,-45.98189 7.21382,-14.04138 9.51733,-17.69527 11.60666,-18.41074 1.97393,-0.67596 5.49358,-0.0333 14.5,2.64752 6.54134,1.94708 19.09334,5.62434 27.89334,8.17168 26.45595,7.65821 23.69366,5.65825 31.17784,22.57343 14.3814,32.50373 14.45377,32.76094 10.2812,36.53707 -1.86444,1.68729 -3.24662,1.73207 -21.92324,0.71017 -23.83166,-1.30395 -26.18466,-0.91543 -40.82549,6.74103 l -10.24164,5.3559 -2.9739,-2.84918 c -1.63565,-1.56705 -3.11249,-2.65699 -3.28186,-2.42209 -1.17638,1.63154 -3.10923,7.45517 -4.76132,14.34579 C 317.19567,243.91318 317.42832,269 320.29083,269 c 0.56044,0 5.10907,-4.29352 10.10806,-9.54115 l 9.08908,-9.54114 17.00602,-5.47345 c 15.12353,-4.86756 17.94692,-6.13767 25.50601,-11.47404 11.65315,-8.22658 12.28894,-8.50739 15.88705,-7.01701 2.54078,1.05243 3.55181,2.72196 6.89754,11.38999 8.96217,23.21896 9.70135,25.86782 8.13763,29.16132 -0.95252,2.0062 -10.00887,9.43547 -27.42222,22.49548 -21.37086,16.02814 -26.05481,19.97381 -26.30785,22.16118 -0.16932,1.46365 1.26229,8.21365 3.18135,15 9.75423,34.49377 12.6265,45.39942 12.6265,47.94128 0,5.01591 -3.58903,7.60466 -17.91241,12.92013 -7.37682,2.73758 -14.17187,4.97741 -15.1001,4.97741 -1.43316,0 -18.09245,-7.54141 -46.12392,-20.8796 -7.44057,-3.54044 -8.31873,-4.91475 -9.31546,-14.57862 -0.33799,-3.27702 -0.85336,-6.9098 -1.14526,-8.07285 -0.64703,-2.57797 2.0444,-5.31403 23.84715,-24.24266 16.5391,-14.35885 17.75286,-16.10493 14.39106,-20.70247 -1.52473,-2.08519 -0.10355,-2.05477 -26.1114,-0.55884 -16.53457,0.95104 -50.44976,0.0716 -57.26443,-1.48498 -2.96512,-0.67726 -6.26523,2.67588 -6.26523,6.3659 0,2.40818 1.95906,4.523 12.73724,13.75 7.00548,5.99727 15.83056,13.81837 19.61129,17.38024 l 6.87406,6.47612 -0.70515,9.01396 c -0.38783,4.95768 -1.27214,10.09611 -1.96514,11.41874 -0.93408,1.78275 -7.81733,5.47125 -26.61099,14.25992 -13.94306,6.52033 -26.27133,11.80156 -27.39616,11.73608 -1.12483,-0.0655 -7.8714,-2.26087 -14.99238,-4.87864 z M 205,109.47342 V 94.94684 L 188,58.674094 c -9.35,-19.95001 -17,-36.681743 -17,-37.181628 0,-0.499885 1.9125,0.922088 4.25,3.159941 10.30363,9.864385 24.01732,18.038853 37.56127,22.389554 l 8.68873,2.791066 0.74162,8.741775 c 0.40789,4.807976 0.90332,8.903467 1.10094,9.101091 0.19762,0.197623 3.46389,-0.289442 7.25838,-1.082367 3.79448,-0.792925 10.16156,-1.758991 14.14906,-2.146814 3.9875,-0.387823 7.25,-1.001836 7.25,-1.364473 0,-0.362637 -1.7397,-5.24707 -3.866,-10.854295 l -3.86601,-10.194955 4.57889,-2.683406 C 258.36163,33.77357 269.46958,20.488698 276.10456,6.75 277.36625,4.1375 278.70427,2 279.07795,2 c 0.37367,0 1.28242,1.4625 2.01942,3.25 2.50567,6.077112 12.89308,20.556003 18.15727,25.309202 2.88495,2.604906 7.38286,6.058327 9.99536,7.67427 2.6125,1.615942 4.75,3.552152 4.75,4.302689 0,0.750537 -1.575,5.715619 -3.5,11.033516 -1.925,5.317897 -3.5,9.840223 -3.5,10.049613 0,0.209391 1.2375,0.383363 2.75,0.386605 3.07355,0.0066 21.83661,2.72961 24.39302,3.54008 1.40282,0.444741 1.76832,-0.812274 2.5,-8.598069 l 0.85698,-9.118963 8.86263,-2.844947 c 12.88058,-4.13473 27.23931,-12.7234 37.38737,-22.36325 2.3375,-2.220439 4.25,-3.570126 4.25,-2.999304 0,0.570822 -5.21056,12.027016 -11.57902,25.458208 -6.36846,13.431193 -14.01846,29.632936 -17,36.003875 L 354,94.66705 v 14.66647 C 354,117.40009 353.76459,124 353.47686,124 c -0.28772,0 -5.80022,-1.55688 -12.25,-3.45973 -23.05639,-6.80223 -32.59891,-8.04243 -61.72686,-8.02236 -29.13974,0.0201 -38.90443,1.28915 -61.72686,8.02236 C 211.32336,122.44312 205.81086,124 205.52314,124 205.23541,124 205,117.46304 205,109.47342 Z"
       id="path98"
       inkscape:connector-curvature="0" />
  </g>
</svg>
