<?xml version="1.0" encoding="UTF-8" standalone="no"?>
<!-- Created with Inkscape (http://www.inkscape.org/) -->

<svg
   width="250"
   height="250"
   viewBox="0 0 921.33331 1545.3333"
   xml:space="preserve"
   xmlns:xlink="http://www.w3.org/1999/xlink"
   xmlns="http://www.w3.org/2000/svg"
   xmlns:svg="http://www.w3.org/2000/svg"><defs
     id="defs1"><linearGradient
       id="linearGradient40"><stop
         style="stop-color:#000000;stop-opacity:1;"
         offset="0"
         id="stop40" /><stop
         style="stop-color:#000000;stop-opacity:0;"
         offset="1"
         id="stop41" /></linearGradient><radialGradient
       xlink:href="#linearGradient40"
       id="radialGradient41"
       cx="1470.6475"
       cy="687.39752"
       fx="1470.6475"
       fy="687.39752"
       r="460.66666"
       gradientTransform="matrix(1,0,0,1.6772793,0,-465.5601)"
       gradientUnits="userSpaceOnUse" /></defs><g
     id="g1"
     style="fill:url(#radialGradient41);fill-opacity:1"><path
       style="fill:white"
       d="m 441.18903,1528.5893 c -0.3332,-0.2999 -7.99657,-0.9569 -17.02972,-1.4602 -9.03314,-0.5033 -17.13314,-1.1729 -18,-1.488 -0.86685,-0.3151 -6.3761,-1.1412 -12.24277,-1.8358 -5.86666,-0.6945 -12.16666,-1.6038 -13.99999,-2.0205 -1.83334,-0.4167 -7.23334,-1.4238 -12,-2.2378 -8.13693,-1.3897 -12.54231,-2.4429 -30.66667,-7.3314 -17.21083,-4.6422 -23.08174,-6.5604 -42.85276,-14.0009 -11.46902,-4.3161 -21.51902,-7.8475 -22.33333,-7.8475 -0.81432,0 -1.48058,-0.6 -1.48058,-1.3334 0,-0.7333 -0.93087,-1.3333 -2.06861,-1.3333 -3.27572,0 -35.79328,-16.2275 -50.59805,-25.2504 -26.11123,-15.9137 -50.66188,-33.4994 -70.66667,-50.6188 -14.73833,-12.6125 -45.93578,-43.3664 -51.77308,-51.0369 l -3.733585,-4.9062 4.619711,-6.7159 c 5.531684,-8.0416 11.221044,-22.4603 12.221164,-30.9723 1.71823,-14.6239 1.71629,-17.6639 -0.0181,-28.378 -6.05637,-37.4129 -35.008012,-65.2294 -73.940681,-71.0415 -6.943511,-1.0366 -12.856689,-2.1168 -13.140395,-2.4005 -0.745091,-0.7451 -0.725822,19.4775 -0.469031,-492.24007 0.129968,-258.99167 0.599978,-471.84166 1.044467,-472.99998 0.72797,-1.89706 12.436884,-2.10604 117.99884,-2.10604 h 117.19068 v 16 16 H 154.58322 51.916552 v 455.19066 c 0,413.84433 0.191572,455.26413 2.10905,455.99993 1.159978,0.4452 3.244952,0.8094 4.633277,0.8094 1.388325,0 6.454278,1.8 11.257673,4 4.803395,2.2 9.31842,4 10.033389,4 0.714969,0 1.299944,0.6 1.299944,1.3333 0,0.7333 0.942857,1.3333 2.095238,1.3333 1.152381,0 2.857365,0.75 3.788853,1.6667 0.931488,0.9167 3.695581,3.1667 6.142429,5 7.518175,5.6331 12.617335,9.9475 13.117495,11.0987 0.26254,0.6043 2.571,3.0039 5.1299,5.3325 10.31235,9.384 21.07706,29.679 26.50318,49.9672 2.19764,8.2169 2.54066,36.8647 0.58444,48.8103 -0.70932,4.3315 -2.90837,12.0012 -4.88677,17.0438 l -3.5971,9.1684 5.22784,5.4367 c 10.81896,11.2512 16.79098,17.1424 17.37753,17.1424 0.33322,0 2.57414,1.95 4.97983,4.3333 2.40569,2.3834 7.58496,7.0334 11.5095,10.3334 3.92453,3.3 7.89339,6.75 8.81967,7.6666 0.92628,0.9167 2.02015,1.6667 2.43082,1.6667 0.71346,0 1.80602,0.8468 9.88917,7.665 1.95505,1.6491 4.03083,2.9991 4.61283,3 0.58201,9e-4 2.68201,1.5423 4.66667,3.4253 1.98466,1.883 5.88771,4.6101 8.67343,6.0602 2.78573,1.4502 5.39993,3.5095 5.80932,4.5764 0.4094,1.0669 1.88017,1.9398 3.26837,1.9398 1.38821,0 2.52402,0.6 2.52402,1.3333 0,0.7333 0.9,1.3333 2,1.3333 1.1,0 2,0.4536 2,1.0079 0,0.5543 1.68729,1.7547 3.74954,2.6675 2.06225,0.9129 5.03717,2.8593 6.61092,4.3255 1.57375,1.4662 4.08646,2.6658 5.58379,2.6658 1.49733,0 2.7271,0.45 2.73282,1 0.006,0.55 1.35572,1.6603 3,2.4673 1.64428,0.807 9.12788,4.557 16.63023,8.3333 7.50235,3.7763 14.25235,6.8661 15,6.8661 0.74765,0 1.35936,0.53 1.35936,1.1778 0,0.6479 1.35,1.4805 3,1.8504 2.5238,0.5656 30.30981,10.7443 39,14.2865 3.54469,1.4449 31.41867,8.8313 40.66667,10.7765 4.03333,0.8483 8.71156,2.0748 10.39607,2.7256 1.6845,0.6507 5.09909,1.1831 7.58798,1.1831 2.48888,0 4.89606,0.6 5.34928,1.3334 0.45323,0.7333 3.07844,1.3333 5.83381,1.3333 2.75537,0 8.26996,0.5749 12.25465,1.2775 29.92059,5.276 115.02192,3.9487 136.5782,-2.1301 1.46667,-0.4136 5.66667,-1.2591 9.33334,-1.8789 7.20233,-1.2176 15.17936,-2.9243 24.66666,-5.2776 3.3,-0.8186 7.65735,-1.8206 9.68299,-2.2266 2.02564,-0.4061 4.01105,-1.2692 4.41202,-1.918 0.40097,-0.6488 2.20177,-1.1796 4.00177,-1.1796 1.80001,0 4.3146,-0.5264 5.58798,-1.1697 1.27338,-0.6433 4.71524,-1.8862 7.64858,-2.762 8.49894,-2.5374 24.04535,-8.3793 28.9819,-10.8905 1.27339,-0.6478 3.52339,-1.1778 5,-1.1778 1.47662,0 2.68476,-0.6 2.68476,-1.3333 0,-0.7334 0.75,-1.3249 1.66667,-1.3145 1.53877,0.017 39.49776,-18.5166 41,-20.0189 0.36667,-0.3666 3.36667,-2.1225 6.66666,-3.9018 12.28473,-6.6238 51.99591,-34.2368 61.50152,-42.7648 1.2261,-1.1 4.23984,-3.7452 6.69721,-5.8781 6.4328,-5.5836 23.42082,-21.9236 30.74219,-29.5695 6.12711,-6.3988 6.23062,-6.6462 4.41387,-10.5524 -7.48625,-16.0963 -10.92109,-45.7081 -7.39138,-63.7211 5.12596,-26.159 20.21596,-52.5991 38.32656,-67.1541 3.50718,-2.8187 6.6767,-5.4248 7.04337,-5.7915 2.46374,-2.4638 9.57467,-6.6667 11.27934,-6.6667 1.12969,0 2.05399,-0.5564 2.05399,-1.2364 0,-1.2047 17.06555,-8.3083 24.35483,-10.1378 l 3.64517,-0.9149 0.0668,-25.5221 c 0.0367,-14.0371 0.18674,-218.87203 0.33333,-455.18862 l 0.26653,-429.66652 -102.99999,-1.2e-4 -103,-1.3e-4 v -14.5034 c 0,-10.48731 0.49417,-14.91353 1.7846,-15.9845 1.2848,-1.06629 34.23919,-1.39207 117.66667,-1.16326 l 115.88206,0.31783 0.66666,481.99998 c 0.36667,265.09998 0.44669,483.04994 0.17783,484.33334 -0.3901,1.862 -1.8956,2.3333 -7.45338,2.3333 -7.63736,0 -25.53305,4.1519 -31.56843,7.3241 -2.10247,1.1051 -5.77268,3.0088 -8.15602,4.2306 -2.38333,1.2217 -9.49846,7.3717 -15.81139,13.6667 -12.53794,12.5021 -18.9938,23.633 -23.17383,39.9553 -5.39529,21.0677 1.08636,55.6556 12.74115,67.9903 2.72859,2.8877 2.8223,3.4473 1.06293,6.3469 -5.98458,9.8631 -56.63141,59.1131 -60.81885,59.1415 -0.91667,0.01 -1.66667,0.5843 -1.66667,1.2847 0,0.7003 -4.94351,5.0503 -10.98558,9.6666 -68.58626,52.4016 -147.32513,85.287 -232.34775,97.0402 -20.03016,2.7689 -82.68534,5.4127 -84.72751,3.5752 z m -6.60582,-67.6304 c -23.9949,-2.2159 -30.1997,-2.97 -43.69878,-5.3116 -80.37356,-13.9413 -156.24785,-52.0589 -215.45933,-108.2419 -3.78438,-3.5908 -3.80968,-3.7176 -2.39479,-12.0003 2.75251,-16.1132 2.95385,-18.1759 2.91826,-29.8968 -0.082,-27.0025 -4.54434,-45.2935 -16.99258,-69.6519 -14.70224,-28.769 -36.88133,-50.9385 -65.324967,-65.2968 l -8.104452,-4.0911 -0.196801,-28.7278 c -0.232628,-33.9575 0.267125,-38.0402 4.65648,-38.0402 1.708441,0 3.477077,0.6 3.930301,1.3334 0.453225,0.7333 1.875938,1.3333 3.161584,1.3333 2.12097,0 10.627835,3.4651 16.486995,6.7156 1.27338,0.7064 3.82338,1.2844 5.66666,1.2844 1.84329,0 3.35143,0.5523 3.35143,1.2274 0,0.6751 1.95,1.6443 4.33333,2.1539 2.38333,0.5097 6.13333,1.843 8.33333,2.963 7.78456,3.9632 8.64854,4.3224 10.39814,4.3224 0.97221,0 4.25137,1.2 7.28702,2.6666 3.03565,1.4667 6.41293,2.6667 7.50508,2.6667 1.09214,0 2.35654,0.6 2.80976,1.3333 0.45323,0.7334 1.69518,1.3334 2.75989,1.3334 1.06471,0 4.7793,1.2598 8.25464,2.7995 3.47535,1.5398 7.81881,3.4098 9.65214,4.1556 1.83333,0.7458 4.37519,1.886 5.64857,2.5338 1.27339,0.6477 3.11069,1.1777 4.0829,1.1777 0.97221,0 4.25136,1.2 7.28702,2.6667 3.03565,1.4667 6.44834,2.6667 7.58377,2.6667 1.13542,0 2.06441,0.4915 2.06441,1.0923 0,0.6007 3,1.9092 6.66666,2.9077 3.66667,0.9984 6.66667,2.3069 6.66667,2.9077 0,0.6007 1.46459,1.0923 3.25464,1.0923 1.79006,0 3.62547,0.6 4.07869,1.3333 0.45323,0.7333 1.97039,1.3333 3.37147,1.3333 1.40108,0 4.68392,1.2 7.2952,2.6667 2.61128,1.4667 5.89412,2.6667 7.2952,2.6667 1.40108,0 2.91824,0.6 3.37146,1.3333 0.45323,0.7333 1.98864,1.3333 3.41203,1.3333 1.42338,0 2.58797,0.6 2.58797,1.3334 0,0.7333 1.20815,1.3333 2.68476,1.3333 1.47662,0 4.02662,0.6937 5.66667,1.5415 6.41876,3.3182 7.70498,3.7918 10.29715,3.7918 1.47662,0 2.68476,0.6 2.68476,1.3334 0,0.7333 1.20814,1.3333 2.68476,1.3333 1.47661,0 3.72661,0.5249 5,1.1664 9.92887,5.0021 14.16152,6.8336 15.79266,6.8336 1.83841,0 3.28894,0.5787 9.50448,3.7918 1.64005,0.8479 3.89005,1.5415 5,1.5415 1.10996,0 2.0181,0.6 2.0181,1.3334 0,0.7333 1.20814,1.3333 2.68475,1.3333 1.47662,0 3.87662,0.6 5.33334,1.3333 1.45671,0.7334 3.84043,1.9334 5.29715,2.6667 1.45671,0.7333 3.55671,1.3333 4.66666,1.3333 1.10995,0 2.0181,0.6 2.0181,1.3334 0,0.7333 0.90945,1.3333 2.02099,1.3333 3.23303,0 12.64567,3.219 12.64567,4.3246 0,0.5548 1.40782,1.0087 3.12848,1.0087 1.72067,0 4.87067,0.8346 7,1.8546 2.12934,1.02 6.27152,2.8705 9.20486,4.1121 2.93333,1.2416 6.37519,2.8071 7.64857,3.4788 1.27338,0.6716 3.23152,1.2212 4.35143,1.2212 1.1199,0 3.22804,0.6 4.68475,1.3333 1.45672,0.7334 3.84044,1.9334 5.29715,2.6667 1.45672,0.7333 3.55672,1.3333 4.66667,1.3333 1.10995,0 2.02277,0.45 2.02849,1 0.0146,1.4041 6.6577,4.3334 9.82742,4.3334 3.56636,0 11.49551,2.9438 11.49551,4.2678 0,0.586 1.18175,1.0655 2.62612,1.0655 1.44436,0 4.76261,1.2 7.37388,2.6667 2.61128,1.4666 5.57283,2.6666 6.58122,2.6666 1.0084,0 4.14015,1.1217 6.95945,2.4926 10.10865,4.9155 14.69789,5.8249 20.126,3.9882 2.75,-0.9305 5.57,-2.1693 6.26667,-2.753 0.69666,-0.5836 2.94666,-1.0611 5,-1.0611 2.05333,0 3.73333,-0.4795 3.73333,-1.0655 0,-0.586 2.25,-1.8257 5,-2.7548 2.75,-0.9291 6.2,-2.1694 7.66667,-2.7561 5.84662,-2.339 10.78128,-4.4597 12.9819,-5.5792 1.27339,-0.6477 3.11069,-1.1777 4.0829,-1.1777 0.97221,0 4.13035,-1.1267 7.01809,-2.5038 2.88774,-1.3771 9.15044,-3.8402 13.91711,-5.4736 4.76666,-1.6335 11.06666,-4.047 13.99999,-5.3635 2.93334,-1.3165 8.93334,-3.7299 13.33334,-5.363 4.4,-1.6331 10.43943,-4.0928 13.42096,-5.466 2.98153,-1.3732 6.13968,-2.4968 7.01809,-2.4968 0.87842,0 2.63899,-0.5249 3.91237,-1.1664 10.36022,-5.2194 14.24815,-6.8336 16.45934,-6.8336 1.40731,0 3.90061,-0.6937 5.54066,-1.5415 6.41876,-3.3182 7.70498,-3.7918 10.29715,-3.7918 1.47662,0 2.68476,-0.6 2.68476,-1.3334 0,-0.7333 1.1855,-1.3333 2.63444,-1.3333 1.44894,0 4.59894,-1.1978 7,-2.6617 2.40106,-1.4639 6.01556,-2.6639 8.03223,-2.6667 2.01666,0 3.66666,-0.6049 3.66666,-1.3383 0,-0.7333 0.90814,-1.3333 2.01809,-1.3333 1.10995,0 3.05995,-0.53 4.33334,-1.1778 1.27338,-0.6477 3.81524,-1.788 5.64857,-2.5338 1.83334,-0.7458 6.1768,-2.6158 9.65214,-4.1555 3.47534,-1.5398 6.92534,-2.7996 7.66666,-2.7996 0.74133,0 1.34787,-0.4723 1.34787,-1.0497 0,-0.5773 1.95,-1.1814 4.33333,-1.3424 2.38334,-0.1609 6.73334,-1.4275 9.66667,-2.8146 10.67324,-5.047 18.00092,-8.1266 19.33689,-8.1266 0.75128,0 2.70782,-0.6937 4.34787,-1.5415 6.25682,-3.2345 7.67238,-3.7918 9.63048,-3.7918 1.10995,0 2.01809,-0.469 2.01809,-1.0423 0,-0.5732 2.85,-1.8409 6.33333,-2.8171 5.95589,-1.6691 15.44418,-5.4537 20.64858,-8.2362 1.27338,-0.6808 3.52338,-1.2378 5,-1.2378 1.47662,0 2.68476,-0.469 2.68476,-1.0422 0,-0.5732 2.85,-1.8338 6.33333,-2.8012 3.48333,-0.9675 8.87679,-2.8985 11.98547,-4.2911 3.10867,-1.3927 6.55867,-2.5321 7.66667,-2.5321 1.10799,0 2.01453,-0.6 2.01453,-1.3334 0,-0.7333 1.5,-1.3333 3.33333,-1.3333 1.83333,0 3.33333,-0.6 3.33333,-1.3333 0,-0.7334 0.90814,-1.3334 2.01809,-1.3334 1.10995,0 3.35995,-0.6936 5,-1.5415 6.52285,-3.372 7.73676,-3.7918 10.96382,-3.7918 1.84328,0 3.35143,-0.6 3.35143,-1.3333 0,-0.7334 1.5,-1.3334 3.33333,-1.3334 1.83333,0 3.33333,-0.6 3.33333,-1.3333 0,-0.7333 1.46459,-1.3333 3.25465,-1.3333 1.79005,0 3.62546,-0.6 4.07869,-1.3334 0.45322,-0.7333 2.28863,-1.3333 4.07868,-1.3333 1.79006,0 3.25465,-0.6 3.25465,-1.3333 0,-2.7703 5.28941,-1.3053 6.01745,1.6666 0.4042,1.65 0.56563,16.7009 0.35873,33.4464 l -0.37618,30.4464 -10,5.3597 c -19.78137,10.6022 -37.84654,26.2247 -50.58789,43.7475 -2.93274,4.0334 -5.87271,7.9751 -6.53327,8.7594 -2.75479,3.2708 -13.54551,26.4964 -13.54551,29.1549 0,1.5871 -0.53357,3.4557 -1.18571,4.1524 -0.65215,0.6967 -2.10337,4.5667 -3.22494,8.6 -5.27198,18.9587 -6.36125,42.6408 -2.96905,64.5505 1.1255,7.2694 2.04637,13.3772 2.04637,13.5728 0,1.0458 -29.28146,25.5918 -41.35713,34.6687 -12.62769,9.4919 -18.94442,13.6864 -39.70977,26.3684 -18.46202,11.2753 -51.47787,26.1544 -78.26643,35.2718 -12.1396,4.1318 -42.64923,11.9522 -57.33333,14.6962 -26.95206,5.0364 -77.37666,7.7372 -102,5.4633 z m -40.06626,-61.1615 c -1.57098,-10.7439 -1.55519,-10.8711 1.98277,-15.9764 1.96149,-2.8304 5.33271,-6.7201 7.49159,-8.6436 2.15888,-1.9236 3.92523,-3.971 3.92523,-4.5497 0,-0.5787 -3.93136,-1.7256 -8.73637,-2.5487 -11.38212,-1.9497 -14.41851,-4.1137 -19.27732,-13.7389 -2.21358,-4.3851 -4.52306,-7.9729 -5.13218,-7.9729 -1.87382,0 -5.10581,4.3597 -8.27397,11.161 -3.38807,7.2733 -7.00789,9.4297 -18.35637,10.9352 -3.78975,0.5027 -6.89045,1.4125 -6.89045,2.0218 0,0.6093 2.35966,3.2911 5.24368,5.9595 9.25918,8.5669 10.40212,13.3698 7.21623,30.3243 l -0.70185,3.7351 5.07424,-2.1202 c 2.79083,-1.1661 5.39527,-2.5469 5.78764,-3.0684 0.39237,-0.5216 1.31339,-1.0707 2.04673,-1.2204 0.73333,-0.1496 3.16931,-0.9881 5.41329,-1.8633 3.71915,-1.4506 4.95727,-1.1265 14,3.6641 5.45602,2.8905 10.11144,5.1377 10.34537,4.9936 0.23392,-0.144 -0.28729,-5.1354 -1.15826,-11.0921 z m 71.55083,2.6273 c 2.08697,0.7935 4.1067,1.8551 4.48829,2.3592 0.73255,0.9678 10.2602,5.5833 11.52539,5.5833 0.40761,0 0.6207,-4.05 0.47354,-9 -0.42521,-14.3023 -0.2911,-14.7729 6.18244,-21.6936 3.63264,-3.8836 5.85266,-7.3653 5.41822,-8.4974 -0.40601,-1.0581 -4.18759,-2.6346 -8.43408,-3.5162 -10.39702,-2.1584 -13.28979,-4.3482 -17.95646,-13.5928 -2.20495,-4.368 -4.69147,-7.6413 -5.57968,-7.3452 -0.88123,0.2937 -1.65405,1.0841 -1.71739,1.7563 -0.19248,2.0429 -2.19807,6.3008 -5.36154,11.3824 -2.60187,4.1796 -4.22426,5.1469 -12.09741,7.2127 -13.82636,3.6278 -13.64397,3.2538 -5.80732,11.9073 l 6.93857,7.6619 -0.25466,9.5289 c -0.45646,17.0796 -1.29585,16.1589 9.20922,10.1022 8.11899,-4.6809 9.61634,-5.1252 12.97287,-3.849 z m 105.77852,1.2758 c -2.26243,-15.5287 -2.02939,-16.4166 6.78152,-25.8355 l 8.0446,-8.5997 -3.71127,-0.6966 c -2.0412,-0.3831 -6.48026,-1.0598 -9.86458,-1.5038 -7.97051,-1.0455 -9.89208,-2.5756 -15.13836,-12.0542 -2.39177,-4.3213 -4.87959,-8.0315 -5.5285,-8.2449 -0.64891,-0.2133 -3.16515,3.4516 -5.59165,8.1442 -4.79617,9.2753 -6.64184,10.5276 -18.87467,12.8062 -4.00757,0.7465 -7.82867,1.8995 -8.49134,2.5621 -0.71759,0.7176 1.41947,3.9518 5.28423,7.9971 7.68223,8.0412 8.717,11.1671 7.61873,23.0152 -0.82534,8.9037 -0.82016,8.9216 2.35719,8.1169 1.75139,-0.4435 3.48434,-1.159 3.85101,-1.59 0.36666,-0.431 3.22579,-2.1772 6.35361,-3.8804 5.0759,-2.7639 6.21234,-2.9233 10.57676,-1.4829 2.68939,0.8876 7.58705,3.3243 10.88367,5.415 3.29663,2.0907 6.11167,3.658 6.25567,3.4829 0.14399,-0.175 -0.21899,-3.6182 -0.80662,-7.6516 z m -221.74307,-77.6666 c -0.4099,-3.1167 -1.14387,-8.4834 -1.63104,-11.926 -0.8803,-6.2207 -0.83825,-6.3091 6.825,-14.3432 4.24091,-4.4461 7.46519,-8.3243 7.16505,-8.6182 -0.30013,-0.2938 -4.02626,-1.4404 -8.28029,-2.5479 -10.4638,-2.7243 -13.68367,-5.1037 -19.39513,-14.3325 -2.67865,-4.3282 -5.55276,-7.8761 -6.38692,-7.8842 -0.83415,-0.01 -3.19112,3.9252 -5.23771,8.7406 -2.61517,6.1533 -4.83509,9.3315 -7.46939,10.6937 -2.06157,1.0661 -4.05999,1.8902 -4.44093,1.8314 -0.38094,-0.059 -3.28796,0.2823 -6.46005,0.758 -10.0225,1.503 -10.1961,2.3073 -2.29992,10.6564 l 7.12347,7.532 -0.90984,12.0524 c -0.85076,11.2699 -0.7544,11.9856 1.48392,11.0229 1.31657,-0.5662 4.34376,-1.6877 6.7271,-2.4921 2.38333,-0.8044 4.33333,-1.9157 4.33333,-2.4696 0,-0.5539 0.9,-1.0071 2,-1.0071 1.1,0 2,-0.6 2,-1.3333 0,-2.9148 7.27079,-1.0571 15.65552,4 4.86353,2.9333 9.09035,5.3333 9.39294,5.3333 0.30259,0 0.21479,-2.55 -0.19511,-5.6666 z m 143.13624,1.3333 c 0.006,-0.55 1.06041,-1.0134 2.34374,-1.0297 1.28333,-0.016 3.83333,-1.2029 5.66667,-2.637 1.83333,-1.434 4.13072,-2.6207 5.1053,-2.637 0.97459,-0.016 6.29815,2.3968 11.83014,5.3624 5.53199,2.9657 10.2077,5.2157 10.39047,5 0.18278,-0.2156 -0.21858,-4.8904 -0.89191,-10.3885 -0.67332,-5.498 -0.86859,-11.4134 -0.43393,-13.1452 0.43466,-1.7318 3.79625,-6.3271 7.4702,-10.2118 3.67395,-3.8846 6.19612,-7.3298 5.60482,-7.6559 -0.5913,-0.3261 -4.97509,-1.3686 -9.74176,-2.3166 -10.18934,-2.0265 -13.06288,-4.2824 -17.81378,-13.985 -1.9398,-3.9616 -4.06374,-7.5347 -4.71986,-7.9402 -0.65612,-0.4055 -2.81611,2.367 -4.79998,6.1611 -1.98386,3.794 -4.27394,7.9662 -5.08906,9.2714 -2.08527,3.339 -8.49089,6.2319 -15.87958,7.1714 -3.46624,0.4407 -6.68786,1.4253 -7.15917,2.1879 -0.47131,0.7625 2.14143,4.4779 5.80607,8.2563 8.00276,8.2511 8.92618,11.4806 6.39053,22.35 -1.06697,4.5736 -1.66846,8.755 -1.33666,9.2919 0.71081,1.1501 7.24256,-1.6448 7.25775,-3.1055 z m 87.30318,1.6667 c 2.58897,-1.4667 6.82547,-3.8667 9.41445,-5.3334 6.2233,-3.5255 6.94354,-3.4418 17.20119,2 4.8381,2.5667 9.17645,4.6667 9.64077,4.6667 0.46432,0 0.45152,-5.1089 -0.0284,-11.3531 l -0.87267,-11.353 5.67596,-6.2886 c 3.12178,-3.4587 6.43148,-7.0982 7.35488,-8.0878 2.62632,-2.8144 1.0074,-3.8576 -8.577,-5.5266 -4.90122,-0.8535 -10.00895,-2.1393 -11.35051,-2.8573 -1.34155,-0.718 -4.15985,-5.1002 -6.26288,-9.7384 -2.10304,-4.6381 -4.38916,-8.7824 -5.08028,-9.2096 -0.69112,-0.4271 -2.87078,2.3414 -4.8437,6.1522 -1.97292,3.8109 -4.33205,7.8867 -5.24251,9.0573 -2.47057,3.1766 -8.90302,6.0818 -15.65537,7.0707 -9.96367,1.4592 -10.16382,2.2151 -2.71152,10.2404 3.69106,3.9749 7.08876,8.6273 7.55045,10.3386 0.80208,2.9729 0.0724,11.3757 -1.66924,19.2219 -0.97193,4.3786 -0.62109,4.4429 5.45642,1 z m -172.44569,-3.3334 c 4.37935,-2.5666 8.84529,-4.6666 9.92431,-4.6666 1.07901,0 6.20836,2.1385 11.39854,4.7522 5.19018,2.6137 9.72864,4.4603 10.08546,4.1035 0.35682,-0.3568 -0.004,-4.8575 -0.80234,-10.0014 -1.7734,-11.4298 -1.02975,-13.6607 7.67761,-23.0317 3.65651,-3.9352 6.54795,-7.2345 6.42543,-7.3319 -0.12252,-0.097 -2.92276,-0.5147 -6.22276,-0.9274 -15.84522,-1.9818 -17.98116,-3.398 -23.42699,-15.5329 -1.98211,-4.4167 -4.12751,-8.0304 -4.76754,-8.0304 -0.64004,0 -3.03224,3.7892 -5.31601,8.4204 -5.16619,10.4765 -9.7646,13.775 -20.92867,15.0125 l -8.4392,0.9355 6.698,6.8158 c 9.23492,9.3973 10.11769,12.6299 7.59598,27.8158 -1.29333,7.7885 -0.55507,7.9103 10.09818,1.6666 z m 52.44872,-124.4439 c -0.71269,-0.6429 -7.8958,-3.6302 -15.96247,-6.6384 -8.06667,-3.0083 -27.86667,-10.6423 -44,-16.9645 -16.13333,-6.3222 -32.33333,-12.5834 -36,-13.9137 -3.66666,-1.3304 -13.56666,-5.1044 -22,-8.3868 -8.43333,-3.2823 -19.53333,-7.6024 -24.66666,-9.6003 -5.13334,-1.9978 -14.73334,-5.7401 -21.33334,-8.3162 -6.6,-2.5761 -14.4,-5.602 -17.33333,-6.7244 -2.93333,-1.1223 -7.13333,-2.7859 -9.33333,-3.6969 -2.2,-0.9109 -9.1,-3.554 -15.33334,-5.8734 -6.23333,-2.3195 -12.53333,-4.7682 -14,-5.4416 -2.56297,-1.1767 -25.48568,-10.0669 -50.66666,-19.6502 -6.6,-2.5118 -13.8,-5.3447 -16,-6.2953 -2.2,-0.9506 -11.8,-4.7368 -21.33333,-8.4139 -9.53334,-3.677 -27.38278,-10.6504 -39.66544,-15.4963 -12.28266,-4.846 -22.859194,-8.8108 -23.503409,-8.8108 -4.028105,0 -4.188297,-4.6012 -4.159885,-119.48446 0.01576,-63.71689 0.391147,-117.19889 0.8342,-118.84889 0.443052,-1.65 1.368489,-3 2.056526,-3 0.688037,0 3.918074,-1.215 7.177859,-2.70001 3.259785,-1.485 7.726869,-3.06 9.926849,-3.5 2.19998,-0.43999 3.99996,-1.32499 3.99996,-1.96666 0,-0.64166 1.20815,-1.16666 2.68476,-1.16666 1.47662,0 3.72662,-0.53 5,-1.17777 3.04552,-1.54927 7.89495,-3.50778 13.64858,-5.51217 2.56666,-0.89415 7.21012,-2.7547 10.3188,-4.13456 3.10867,-1.37986 6.26681,-2.50883 7.01809,-2.50883 1.3395,0 2.99969,-0.70116 8.97835,-3.79183 1.64005,-0.84783 4.19005,-1.54151 5.66666,-1.54151 1.47662,0 2.68476,-0.6 2.68476,-1.33333 0,-0.73333 0.90814,-1.33333 2.01809,-1.33333 1.10996,0 3.05996,-0.53 4.33334,-1.17778 1.27338,-0.64777 3.81524,-1.77306 5.64857,-2.50065 1.83334,-0.72758 5.01157,-1.99758 7.06274,-2.82222 2.05117,-0.82465 4.90117,-1.49935 6.33333,-1.49935 1.43216,0 2.60393,-0.6 2.60393,-1.33334 0,-0.73333 0.90814,-1.33333 2.01809,-1.33333 1.10995,0 3.20995,-0.6 4.66667,-1.33333 1.45672,-0.73334 3.84043,-1.93334 5.29715,-2.66667 1.45672,-0.73333 3.82131,-1.33333 5.25464,-1.33333 1.43334,0 2.97689,-0.6 3.43012,-1.33334 0.45322,-0.73333 1.98863,-1.33333 3.41202,-1.33333 1.42339,0 2.58798,-0.6 2.58798,-1.33333 0,-0.73334 1.18175,-1.33334 2.62611,-1.33334 1.44436,0 4.59436,-1.10466 7,-2.45481 2.40564,-1.35015 6.77389,-3.19195 9.70722,-4.0929 2.93333,-0.90094 6.53333,-2.13911 8,-2.75147 1.46667,-0.61237 7.76667,-3.06249 14,-5.4447 6.23333,-2.38222 11.90333,-4.83939 12.6,-5.46038 0.69667,-0.62099 2.94667,-1.12907 5,-1.12907 2.05333,0 3.73333,-0.6 3.73333,-1.33333 0,-0.73334 1.5,-1.33334 3.33334,-1.33334 1.83333,0 3.33333,-0.6 3.33333,-1.33333 0,-0.73333 0.92898,-1.33333 2.06441,-1.33333 1.13542,0 4.54812,-1.2 7.58377,-2.66667 3.03565,-1.46666 6.60667,-2.66666 7.93559,-2.66666 1.32893,0 2.41623,-0.6 2.41623,-1.33334 0,-0.73333 1.08,-1.33333 2.4,-1.33333 1.32,0 2.97,-0.47752 3.66667,-1.06115 0.69666,-0.58363 3.66666,-1.83408 6.6,-2.77878 2.93333,-0.94471 7.87679,-2.86719 10.98546,-4.27219 3.10868,-1.405 6.54043,-2.55455 7.62612,-2.55455 1.08568,0 4.11047,-1.2 6.72175,-2.66666 2.61128,-1.46667 5.89412,-2.66667 7.2952,-2.66667 1.40108,0 2.86737,-0.5177 3.25843,-1.15044 0.39105,-0.63273 3.44192,-1.91504 6.7797,-2.84956 3.33778,-0.93452 6.38865,-2.21683 6.77971,-2.84956 0.39105,-0.63274 2.17559,-1.15044 3.96565,-1.15044 1.79005,0 3.25464,-0.6 3.25464,-1.33333 0,-0.73334 1.08,-1.33334 2.4,-1.33334 1.32,0 2.97,-0.47751 3.66667,-1.06114 0.69667,-0.58363 3.66666,-1.83409 6.6,-2.77879 2.93333,-0.9447 7.87679,-2.86719 10.98547,-4.27219 3.10867,-1.405 6.26681,-2.55454 7.01809,-2.55454 0.75127,0 2.40781,-0.55097 3.6812,-1.22438 5.69132,-3.00978 15.13173,-6.77562 16.98546,-6.77562 1.11795,0 3.07449,-0.52488 4.34787,-1.1664 9.67728,-4.87535 14.12591,-6.8336 15.52414,-6.8336 0.89295,0 4.1282,-1.21011 7.18943,-2.68914 4.20994,-2.03402 6.21989,-2.35884 8.25044,-1.33333 1.47651,0.74569 3.87642,1.9558 5.33314,2.68914 1.45671,0.73333 3.85671,1.33333 5.33333,1.33333 1.47662,0 2.68476,0.6 2.68476,1.33333 0,0.73333 1.16459,1.33333 2.58798,1.33333 1.42338,0 2.95879,0.6 3.41202,1.33334 0.45322,0.73333 2.28863,1.33333 4.07869,1.33333 1.79005,0 3.25464,0.6 3.25464,1.33333 0,0.73334 1.20814,1.33334 2.68476,1.33334 1.47662,0 3.87662,0.6 5.33333,1.33333 1.45672,0.73333 3.84044,1.93333 5.29715,2.66667 1.45672,0.73333 3.85672,1.33333 5.33334,1.33333 1.47661,0 2.68476,0.6 2.68476,1.33333 0,0.73334 1.20814,1.33334 2.68475,1.33334 1.47662,0 3.72662,0.55097 5,1.22438 5.5777,2.94968 15.1141,6.77562 16.88869,6.77562 1.06471,0 2.30666,0.6 2.75989,1.33333 0.45322,0.73333 2.28863,1.33333 4.07869,1.33333 1.79005,0 3.25464,0.6 3.25464,1.33334 0,0.73333 1.16459,1.33333 2.58798,1.33333 1.42339,0 2.9588,0.6 3.41202,1.33333 0.45323,0.73334 1.71762,1.33334 2.80977,1.33334 1.09214,0 4.46943,1.2 7.50508,2.66666 3.03565,1.46667 6.90666,2.66667 8.60226,2.66667 1.69559,0 3.08289,0.6 3.08289,1.33333 0,0.73334 1.5,1.33334 3.33333,1.33334 1.83334,0 3.33334,0.6 3.33334,1.33333 0,0.73333 0.90814,1.33333 2.01809,1.33333 1.10995,0 3.20995,0.6 4.66667,1.33334 1.45671,0.73333 3.84043,1.93333 5.29715,2.66666 1.45671,0.73334 3.56485,1.33334 4.68475,1.33334 1.1199,0 3.07805,0.53125 4.35143,1.18056 12.49739,6.37254 19.85744,9.4861 22.42384,9.4861 1.68704,0 3.43817,0.6 3.8914,1.33334 0.45322,0.73333 1.89645,1.33333 3.20717,1.33333 1.31072,0 4.12531,0.83456 6.25465,1.85459 2.12933,1.02002 6.27151,2.87046 9.20485,4.11209 2.93333,1.24162 6.37519,2.80706 7.64857,3.47874 1.27338,0.67169 3.46668,1.22124 4.874,1.22124 1.40732,0 5.16546,1.2852 8.35142,2.856 3.18597,1.57079 7.29267,3.4408 9.12601,4.15556 1.83333,0.71476 4.37519,1.82956 5.64857,2.47734 1.27338,0.64777 2.95237,1.17777 3.73107,1.17777 0.77871,0 3.89955,1.2 6.9352,2.66667 3.03565,1.46666 6.31481,2.66666 7.28702,2.66666 0.97221,0 2.80951,0.53 4.08289,1.17778 1.27339,0.64777 3.96524,1.84777 5.98191,2.66666 2.01667,0.81889 5.31667,2.1589 7.33333,2.97779 2.01667,0.81889 4.70853,2.01889 5.98191,2.66667 1.27339,0.64777 3.48797,1.17777 4.92131,1.17777 1.43334,0 2.97689,0.6 3.43012,1.33333 0.45322,0.73334 1.98863,1.33334 3.41202,1.33334 1.42339,0 2.58798,0.6 2.58798,1.33333 0,0.73333 1.20814,1.33333 2.68476,1.33333 1.47661,0 3.72661,0.53 5,1.17777 2.38471,1.21312 7.80188,3.52423 13.64857,5.82286 1.83333,0.72077 4.37519,1.84049 5.64857,2.48827 1.27339,0.64777 3.48798,1.17777 4.92132,1.17777 1.43333,0 2.97688,0.6 3.43011,1.33333 0.45322,0.73334 1.98863,1.33334 3.41202,1.33334 1.42339,0 2.58798,0.6 2.58798,1.33333 0,0.73333 1.20814,1.33333 2.68476,1.33333 1.47662,0 3.72662,0.53 5,1.17777 1.27338,0.64778 3.96524,1.84778 5.98191,2.66667 2.01666,0.81889 5.31666,2.1589 7.33333,2.97779 2.01667,0.81889 4.70852,2.01889 5.98191,2.66667 1.27338,0.64777 3.23152,1.17777 4.35142,1.17777 1.97529,0 3.38618,0.55447 9.64858,3.79183 1.64005,0.84782 3.89005,1.5415 5,1.5415 1.10995,0 2.01809,0.6 2.01809,1.33333 0,0.73334 1.35,1.35242 3,1.37574 1.65,0.0233 4.05,0.83947 5.33333,1.81366 2.19131,1.66344 2.33334,8.95505 2.33334,119.79433 0,92.85979 -0.35535,118.29079 -1.66667,119.27879 -0.91667,0.6907 -11.56667,5.0345 -23.66667,9.653 -12.1,4.6184 -34,13.1978 -48.66666,19.0652 -14.66667,5.8675 -29.66667,11.7316 -33.33334,13.0315 -3.66666,1.2998 -13.86666,5.1973 -22.66666,8.6611 -8.8,3.4637 -24.4,9.5563 -34.66667,13.539 -24.96999,9.6865 -40.11358,15.5725 -72.66666,28.2441 -15.03334,5.8519 -36.33334,14.0502 -47.33334,18.2186 -24.63413,9.3348 -80.39232,31.2283 -92.03752,36.1385 -0.75397,0.318 -1.95397,0.052 -2.66667,-0.5908 z m 15.8302,-163.078 c 2.8193,-1.363 5.69828,-2.4781 6.39774,-2.4781 0.69946,0 3.75545,-1.2 6.7911,-2.6666 3.03565,-1.4667 6.60667,-2.6667 7.9356,-2.6667 1.32892,0 2.41622,-0.6 2.41622,-1.3333 0,-0.7334 1.20814,-1.3334 2.68476,-1.3334 1.47662,0 3.72662,-0.53 5,-1.1777 2.20062,-1.1195 7.13528,-3.2402 12.98191,-5.5792 1.46667,-0.5867 5.06667,-1.8441 8,-2.7942 2.93333,-0.9501 7.30158,-2.7897 9.70722,-4.0881 2.40564,-1.2984 5.43564,-2.3608 6.73333,-2.3608 1.2977,0 2.92945,-0.5527 3.62611,-1.2282 0.69667,-0.6756 5.16667,-2.4963 9.93334,-4.046 4.76666,-1.5498 10.01666,-3.3971 11.66666,-4.1051 10.2622,-4.40356 19.65939,-8.10001 27,-10.62066 5.8841,-2.0205 8.45782,-3.05097 16.31881,-6.53378 3.47534,-1.53976 7.23348,-2.79955 8.35142,-2.79955 1.11794,0 3.07448,-0.53 4.34786,-1.17777 1.27339,-0.64778 3.81525,-1.7675 5.64858,-2.48827 4.85827,-1.91004 9.38017,-3.79119 14.66667,-6.10149 2.56666,-1.12168 7.66666,-3.01451 11.33333,-4.20628 3.66667,-1.19177 9.06667,-3.27815 12,-4.6364 2.93333,-1.35824 8.03333,-3.47585 11.33333,-4.7058 3.3,-1.22994 7.8,-3.02202 10,-3.98239 5.36582,-2.34235 20.63145,-8.24208 31.559,-12.19665 4.89079,-1.76993 10.52423,-4.06468 12.51877,-5.09946 l 3.62643,-1.88141 -5.18543,-2.17661 c -2.85199,-1.19713 -11.48544,-4.58526 -19.18544,-7.52918 -7.7,-2.94392 -18.2,-7.06215 -23.33333,-9.15162 -5.13333,-2.08947 -15.93333,-6.29522 -24,-9.34611 -8.06666,-3.05089 -20.06666,-7.6435 -26.66666,-10.20579 -16.92982,-6.57261 -35.52443,-13.8267 -38.66667,-15.08455 -1.46667,-0.58712 -10.76667,-4.19002 -20.66667,-8.00646 -9.9,-3.81643 -20.4,-7.99889 -23.33333,-9.29435 -2.93333,-1.29546 -7.73333,-3.08999 -10.66667,-3.98785 -2.93333,-0.89785 -7.87679,-2.78201 -10.98546,-4.18701 -3.10868,-1.405 -6.26682,-2.55454 -7.0181,-2.55454 -0.75127,0 -2.40781,-0.53 -3.68119,-1.17778 -1.27339,-0.64777 -4.11524,-1.91777 -6.31524,-2.82222 -2.2,-0.90446 -5.04186,-2.17446 -6.31525,-2.82223 -1.27338,-0.64778 -2.92992,-1.17777 -3.68119,-1.17777 -0.75128,0 -3.90942,-1.12898 -7.0181,-2.50884 -3.10867,-1.37986 -7.75213,-3.25088 -10.3188,-4.15783 -2.56666,-0.90695 -7.06666,-2.70673 -10,-3.99952 -6.79934,-2.99662 -17.62463,-6.66715 -19.66307,-6.66715 -0.86343,0 -6.69246,2.07859 -12.9534,4.61908 -6.26094,2.54048 -19.48353,7.67552 -29.38353,11.41118 -9.9,3.73566 -19.8,7.58418 -22,8.55226 -2.2,0.96808 -8.2,3.37503 -13.33333,5.34879 -5.13333,1.97375 -11.13333,4.39954 -13.33333,5.39064 -2.2,0.99109 -10,3.98348 -17.33333,6.64975 -7.33334,2.66626 -16.03334,6.01583 -19.33334,7.44348 -3.3,1.42765 -11.4,4.61406 -18,7.08092 -6.6,2.46685 -21.3,8.12176 -32.66666,12.56644 -11.36667,4.44469 -31.76667,12.34694 -45.33334,17.56055 -13.56666,5.21361 -30.84084,11.96975 -38.38707,15.01365 l -13.72041,5.53435 8.38708,3.17954 c 4.61289,1.74874 9.42893,3.73525 10.70231,4.41445 1.27339,0.67921 3.52339,1.23492 5,1.23492 1.47662,0 2.68476,0.6 2.68476,1.33333 0,0.73333 0.90814,1.33333 2.01809,1.33333 1.10995,0 3.05995,0.53 4.33334,1.17778 1.27338,0.64777 3.81524,1.76749 5.64857,2.48827 5.84669,2.29862 11.26386,4.60974 13.64858,5.82285 1.27338,0.64777 3.20513,1.17777 4.29277,1.17777 1.08765,0 4.11404,1.2 6.72532,2.66667 2.61128,1.46666 5.63606,2.66666 6.72175,2.66666 1.80575,0 11.30379,3.80196 16.92682,6.77562 1.27339,0.67341 2.95237,1.22438 3.73108,1.22438 0.77871,0 3.89954,1.2 6.93519,2.66667 3.03565,1.46667 6.60667,2.66667 7.9356,2.66667 1.32892,0 2.41622,0.6 2.41622,1.33333 0,0.73333 1.16459,1.33333 2.58798,1.33333 1.42339,0 2.9588,0.6 3.41202,1.33334 0.45323,0.73333 1.90863,1.33333 3.23422,1.33333 2.96732,0 16.59863,5.50454 17.21023,6.94976 0.24444,0.57763 2.19444,1.05024 4.33333,1.05024 2.13889,0 3.88889,0.6 3.88889,1.33333 0,0.73333 1.0873,1.33333 2.41623,1.33333 1.32892,0 4.89994,1.2 7.93559,2.66667 3.03565,1.46667 6.41294,2.66667 7.50508,2.66667 1.09215,0 2.35654,0.6 2.80977,1.33333 0.45322,0.73336 2.28863,1.33336 4.07869,1.33336 1.79005,0 3.25464,0.6 3.25464,1.3333 0,0.7333 1.16459,1.3333 2.58798,1.3333 1.42338,0 2.95879,0.6 3.41202,1.3334 0.45322,0.7333 1.99678,1.3333 3.43011,1.3333 1.43334,0 3.79793,0.6 5.25465,1.3333 1.45671,0.7334 3.84043,1.9334 5.29715,2.6667 1.45671,0.7333 3.85671,1.3333 5.33333,1.3333 1.47662,0 2.68476,0.6 2.68476,1.3334 0,0.7333 1.5,1.3333 3.33333,1.3333 1.83333,0 3.33333,0.6 3.33333,1.3333 0,0.7334 1.5,1.3334 3.33334,1.3334 1.83333,0 3.33333,0.6 3.33333,1.3333 0,0.7333 1.16459,1.3333 2.58798,1.3333 1.42339,0 2.9588,0.6 3.41202,1.3334 0.45323,0.7333 1.99678,1.3333 3.43012,1.3333 1.43333,0 3.64792,0.5607 4.92131,1.246 1.27338,0.6853 4.26524,2.0318 6.64857,2.9922 2.38333,0.9603 4.33333,2.1996 4.33333,2.754 0,0.5543 1.46459,1.0078 3.25465,1.0078 1.79005,0 3.62546,0.6 4.07869,1.3333 0.45322,0.7334 2.25322,1.3334 4,1.3334 1.74677,0 3.54677,0.6 4,1.3333 0.45322,0.7333 1.69517,1.3333 2.75988,1.3333 1.06472,0 4.47931,1.1101 7.58798,2.4669 12.92684,5.6419 15.1285,5.6428 26.77814,0.011 z M 821.24987,766.80189 c -8.43333,-3.31133 -17.8768,-7.16376 -20.98547,-8.56096 -3.10867,-1.39721 -6.26682,-2.54038 -7.01809,-2.54038 -0.75128,0 -2.40782,-0.55527 -3.6812,-1.23393 -1.27338,-0.67867 -8.91524,-3.71932 -16.98191,-6.757 -8.06666,-3.03768 -15.86666,-6.02705 -17.33333,-6.64305 -1.46667,-0.616 -9.26667,-3.62 -17.33333,-6.67556 -8.06667,-3.05556 -21.26667,-8.18261 -29.33334,-11.39345 -8.06666,-3.21084 -28.16666,-10.97599 -44.66666,-17.25588 -16.5,-6.2799 -31.2,-12.00462 -32.66667,-12.72162 -1.46666,-0.71699 -8.36666,-3.44739 -15.33333,-6.06754 -6.96667,-2.62016 -16.26667,-6.1673 -20.66667,-7.88253 -4.4,-1.71524 -10.1,-3.92505 -12.66666,-4.91069 -2.56667,-0.98564 -4.96667,-2.15266 -5.33334,-2.59337 -0.36666,-0.44071 -2.16666,-1.11937 -4,-1.50813 -5.1564,-1.09341 -16.61472,-5.57371 -17.11111,-6.69057 -0.24444,-0.55 -1.33321,-1 -2.41949,-1 -1.91365,0 -13.41503,-4.30456 -18.11797,-6.78091 -1.27338,-0.6705 -3.03395,-1.21909 -3.91237,-1.21909 -0.87842,0 -4.03656,-1.12395 -7.01809,-2.49766 -2.98153,-1.37371 -11.12096,-4.65307 -18.08763,-7.28747 -6.96667,-2.63439 -19.8032,-7.56552 -28.52562,-10.95807 -12.6697,-4.92782 -16.42359,-5.89296 -18.66667,-4.79928 -3.62642,1.76817 -26.11722,10.49486 -35.07008,13.60759 -3.81098,1.325 -8.91098,3.30374 -11.33334,4.3972 -3.79009,1.71086 -16.13664,6.54874 -62.40429,24.45259 -4.76666,1.84452 -11.96666,4.52484 -16,5.95627 -4.03333,1.43142 -9.13333,3.38308 -11.33333,4.33703 -2.2,0.95394 -7.3,2.97287 -11.33333,4.48652 -4.03334,1.51364 -16.63334,6.40467 -28,10.86896 -11.36667,4.46428 -21.31498,8.11375 -22.10736,8.10993 -0.79239,-0.004 -4.39239,1.49054 -8,3.3208 -3.60762,1.83027 -7.00804,3.33027 -7.55649,3.33334 -1.3764,0.008 -51.78674,19.69172 -54.65139,21.34005 -1.27339,0.7327 -3.40338,1.33219 -4.73334,1.33219 -1.32995,0 -2.98809,0.50645 -3.68475,1.12544 -0.69667,0.61899 -4.56667,2.37484 -8.6,3.90189 -19.45972,7.36761 -43.61018,16.66153 -46,17.70236 -8.89739,3.87505 -38.252688,14.60364 -39.9581,14.60364 -1.81039,0 -2.041902,-8.84843 -2.041902,-78.04184 0,-73.15259 0.146182,-78.08856 2.333334,-78.78756 1.283333,-0.41015 3.683333,-1.29132 5.333333,-1.95816 1.65,-0.66683 4.5,-1.81243 6.333335,-2.54576 8.15768,-3.26308 10.8154,-4.38679 12.98191,-5.4889 1.27338,-0.64777 3.11068,-1.17777 4.08289,-1.17777 0.97221,0 4.25137,-1.2 7.28702,-2.66666 3.03565,-1.46667 6.41293,-2.66667 7.50508,-2.66667 1.09215,0 2.35654,-0.6 2.80976,-1.33333 0.45323,-0.73334 2.28864,-1.33334 4.07869,-1.33334 1.79006,0 3.25465,-0.53002 3.25465,-1.17782 0,-1.07543 2.91772,-2.37889 7.94299,-3.54846 1.06864,-0.24871 3.31864,-1.08704 5,-1.86296 1.68135,-0.77592 4.70701,-2.08076 6.72367,-2.89965 2.01667,-0.81889 4.70853,-2.01889 5.98191,-2.66667 1.27338,-0.64777 3.1312,-1.17777 4.12848,-1.17777 0.99729,0 3.85543,-1.03996 6.35143,-2.31101 6.10249,-3.10761 13.35397,-5.64439 16.20485,-5.66891 1.28333,-0.011 2.33333,-0.62008 2.33333,-1.35341 0,-0.73334 1.18175,-1.33334 2.62611,-1.33334 1.44437,0 4.76262,-1.2 7.37389,-2.66666 2.61128,-1.46667 5.63767,-2.66667 6.72532,-2.66667 1.08764,0 3.01939,-0.53 4.29277,-1.17777 2.28805,-1.16394 6.81833,-3.06597 12.64858,-5.3105 1.65,-0.63522 4.65,-1.83522 6.66666,-2.66667 6.78306,-2.79658 9.64412,-3.90141 14.33334,-5.535 2.56666,-0.89415 7.21013,-2.7547 10.3188,-4.13456 3.10867,-1.37986 6.26682,-2.50883 7.01809,-2.50883 0.75128,0 2.40782,-0.53 3.6812,-1.17777 1.27338,-0.64778 3.96524,-1.84778 5.98191,-2.66667 2.01666,-0.81889 5.31666,-2.1589 7.33333,-2.97779 2.01667,-0.81889 4.70853,-2.01889 5.98191,-2.66667 1.27338,-0.64777 3.23152,-1.17777 4.35142,-1.17777 1.1199,0 3.07805,-0.55097 4.35143,-1.22438 6.34774,-3.35691 15.24518,-6.77562 17.63404,-6.77562 1.47466,0 2.6812,-0.6 2.6812,-1.33333 0,-0.73333 1.2,-1.33333 2.66667,-1.33333 1.46666,0 2.66666,-0.6 2.66666,-1.33334 0,-0.73333 1.48175,-1.33333 3.29278,-1.33333 1.81103,0 5.42928,-1.2 8.04056,-2.66667 2.61127,-1.46666 5.63766,-2.66666 6.72531,-2.66666 1.08764,0 3.01939,-0.53 4.29278,-1.17777 1.27338,-0.64778 4.11524,-1.91778 6.31524,-2.82223 2.2,-0.90445 5.04186,-2.17446 6.31524,-2.82223 1.27338,-0.64778 2.85011,-1.17777 3.50384,-1.17777 0.65372,0 3.51186,-1.01467 6.35142,-2.25482 2.83956,-1.24014 7.84505,-3.22345 11.12331,-4.40734 5.0657,-1.82939 6.11143,-2.84197 6.96605,-6.74518 0.55306,-2.52597 0.66571,-6.27663 0.25033,-8.33481 l -0.75523,-3.74214 -48.21081,0.18309 c -26.51595,0.10071 -94.56082,0.13467 -151.21081,0.0755 L 86.583218,482.36724 V 403.6862 325.00517 l 297.666662,0.0962 c 163.71666,0.0529 332.16666,0.0443 374.33332,-0.0192 42.16667,-0.0635 77.42146,-0.10033 78.34399,-0.0819 1.33209,0.0267 1.60652,16.129 1.33334,78.23214 l -0.34399,78.19854 -21.33334,0.36309 c -11.73333,0.1997 -79.42108,0.54828 -150.41722,0.77462 -70.99614,0.22634 -129.6987,0.7915 -130.45012,1.25591 -2.0817,1.28655 -0.79321,13.42732 1.54787,14.58487 1.86949,0.92438 4.80705,2.15279 12.65281,5.2911 8.15769,3.26307 10.81541,4.38679 12.98191,5.48889 1.27338,0.64778 3.52338,1.17777 5,1.17777 1.47662,0 2.68476,0.6 2.68476,1.33334 0,0.73333 0.90814,1.33333 2.01809,1.33333 1.10995,0 3.20995,0.6 4.66667,1.33333 1.45671,0.73334 3.84043,1.93334 5.29715,2.66667 1.45671,0.73333 3.8213,1.33333 5.25464,1.33333 1.43334,0 2.97689,0.6 3.43011,1.33334 0.45323,0.73333 2.28864,1.33333 4.07869,1.33333 1.79006,0 3.25465,0.6 3.25465,1.33333 0,0.73334 0.90814,1.33334 2.01809,1.33334 1.10995,0 3.20995,0.6 4.66667,1.33333 1.45671,0.73333 3.84043,1.93333 5.29714,2.66667 1.45672,0.73333 3.85672,1.33333 5.33334,1.33333 1.47662,0 2.68476,0.6 2.68476,1.33333 0,0.73334 1.20814,1.33334 2.68475,1.33334 1.47662,0 3.72662,0.52488 5,1.1664 9.92888,5.0021 14.16153,6.8336 15.79267,6.8336 1.04065,0 3.23395,0.69367 4.874,1.5415 5.94977,3.07574 7.63628,3.79183 8.93043,3.79183 0.72492,0 5.08306,1.68792 9.68476,3.75092 4.60169,2.06301 11.06672,4.56734 14.36672,5.56518 3.3,0.99783 6.57,2.30992 7.26667,2.91574 0.69666,0.60582 2.07565,1.10149 3.0644,1.10149 0.98876,0 4.28146,1.2 7.31711,2.66667 3.03565,1.46666 6.31481,2.66666 7.28702,2.66666 0.9722,0 2.80951,0.53 4.08289,1.17778 1.27338,0.64777 3.81524,1.76257 5.64857,2.47734 1.83334,0.71476 5.94004,2.58476 9.12601,4.15556 3.18596,1.57079 6.6425,2.85599 7.68119,2.85599 1.03869,0 4.73199,1.2598 8.20734,2.79955 7.86098,3.48281 10.4347,4.51328 16.3188,6.53378 5.64488,1.93836 10.53455,3.90479 13.64857,5.4889 1.27338,0.64777 2.95237,1.17777 3.73108,1.17777 0.7787,0 3.89954,1.2 6.93519,2.66667 3.03565,1.46666 6.60667,2.66666 7.9356,2.66666 1.32892,0 2.41622,0.6 2.41622,1.33334 0,0.73333 1.08,1.33333 2.4,1.33333 1.32,0 2.97,0.47751 3.66667,1.06114 0.69667,0.58363 3.66667,1.82329 6.6,2.7548 2.93333,0.93152 6.83333,2.33428 8.66667,3.11725 1.83333,0.78298 4.53333,1.88352 6,2.44566 1.46666,0.56213 5.51012,2.28185 8.98546,3.8216 3.47535,1.53975 7.16115,2.79955 8.19069,2.79955 1.02953,0 2.23607,0.94907 2.68119,2.10905 1.1805,3.07632 0.99341,156.57707 -0.19068,156.4519 -0.55,-0.0581 -7.9,-2.81497 -16.33333,-6.12629 z M 119.91655,566.36776 c -5.5,-0.60646 -12.27484,-1.69709 -15.05521,-2.42363 -5.703604,-1.49041 -12.305973,-7.84257 -16.278122,-15.66124 -1.466666,-2.88694 -3.37332,-5.84899 -4.237007,-6.58232 -3.865105,-3.28176 -17.931753,-23.84381 -18.60104,-27.19024 l -0.742663,-3.71332 23.790355,-0.79337 c 29.405597,-0.98064 65.893247,1.19673 73.123687,4.36359 1.46667,0.64239 4.91667,1.50518 7.66667,1.91732 11.42581,1.71238 14.33333,2.43491 14.33333,3.56189 0,0.6531 2.10814,1.18746 4.68476,1.18746 2.57661,0 5.72661,0.53 7,1.17777 1.27338,0.64778 4.11524,1.91778 6.31524,2.82223 2.2,0.90445 5.04186,2.17445 6.31524,2.82223 1.27338,0.64777 3.22338,1.17777 4.33333,1.17777 1.10995,0 2.0181,0.48801 2.0181,1.08447 0,0.59646 2.1,1.90845 4.66666,2.91553 2.56667,1.00708 4.66667,2.21087 4.66667,2.67508 0,1.21378 -6.45906,6.65825 -7.89903,6.65825 -0.66665,0 -1.41208,0.50779 -1.65653,1.12841 -0.52297,1.3278 -28.13773,14.87159 -30.32203,14.87159 -0.82056,0 -2.53379,0.54152 -3.80717,1.20338 -2.27789,1.18397 -6.9065,2.45976 -19.2047,5.29344 -8.8702,2.04381 -29.40167,2.7948 -41.11054,1.50371 z m 655.99999,-0.0304 c -12.0767,-1.13686 -30.02242,-5.65277 -39.24338,-9.8753 -17.39399,-7.96518 -20.54417,-9.57882 -27.08996,-13.87647 -3.85,-2.52773 -7,-5.29961 -7,-6.15974 0,-1.91946 9.96436,-7.39192 13.45934,-7.39192 1.39736,0 2.54066,-0.6 2.54066,-1.33333 0,-0.73334 0.90815,-1.33334 2.0181,-1.33334 1.10995,0 3.35995,-0.69367 5,-1.5415 6.48601,-3.35296 7.72411,-3.79183 10.69715,-3.79183 1.69661,0 3.65475,-0.53854 4.35142,-1.19677 0.69667,-0.65822 3.66667,-1.47886 6.6,-1.82365 2.93333,-0.34479 8.81261,-1.60625 13.06505,-2.80324 4.25245,-1.19699 10.14189,-2.17634 13.08766,-2.17634 2.94576,0 6.54457,-0.63614 7.99735,-1.41364 3.95059,-2.1143 77.33715,-1.82809 78.65656,0.30675 1.13514,1.8367 -2.19719,9.10689 -4.1742,9.10689 -0.7145,0 -1.29909,0.65191 -1.29909,1.4487 0,1.4164 -7.08836,12.15948 -10.27049,15.56589 -0.8821,0.94427 -4.3765,5.84948 -7.76534,10.90045 -3.38883,5.05097 -7.22377,10.14492 -8.52209,11.31988 -5.66609,5.12774 -30.8933,8.06567 -52.10874,6.06851 z M 314.96619,282.96134 c -6.29218,-4.95939 -9.51555,-10.09777 -14.00507,-22.3255 -4.69174,-12.77849 -11.2833,-33.97144 -12.93929,-41.60192 -6.27876,-28.93128 -6.86555,-33.66197 -6.70271,-54.03783 0.091,-11.38747 0.67546,-23.38747 1.29878,-26.66667 0.62333,-3.27919 1.84514,-10.16217 2.71514,-15.2955 3.76564,-22.21864 13.67903,-43.344354 26.68945,-56.875962 4.82493,-5.018219 9.53231,-9.124034 10.46084,-9.124034 0.92852,0 3.28085,-1.123762 5.22739,-2.497249 1.94654,-1.373487 5.93916,-2.939808 8.87249,-3.480712 10.79522,-1.990629 32.66667,-0.782916 32.66667,1.803812 0,0.471086 1.9074,1.700816 4.23866,2.732733 5.99466,2.653493 12.45341,8.377434 21.48726,19.042653 4.96515,5.861783 3.73036,4.079812 20.60239,29.732099 17.25425,26.23341 21.82042,32.51942 23.68429,32.60492 0.74027,0.034 2.09535,1.26174 3.0113,2.72841 0.91595,1.46666 2.31564,2.66666 3.11042,2.66666 0.79479,0 2.97062,1.2 4.83518,2.66667 2.51652,1.97949 5.40905,2.66667 11.22484,2.66667 9.36624,0 16.86539,-3.17094 24.47232,-10.34787 5.62024,-5.30254 5.96145,-5.96369 16.67918,-32.3188 16.18653,-39.802988 23.01402,-54.154588 29.47579,-61.959085 3.61755,-4.369261 12.51534,-12.707576 13.56021,-12.707576 0.58465,0 2.35104,-1.2 3.92532,-2.666667 1.57428,-1.466666 3.6492,-2.666666 4.61092,-2.666666 0.96172,0 1.74858,-0.6 1.74858,-1.333333 0,-0.733334 1.46459,-1.333334 3.25465,-1.333334 1.79005,0 3.62546,-0.6 4.07868,-1.333333 0.4626,-0.748498 6.81547,-1.333333 14.48357,-1.333333 11.87664,0 14.52033,0.431407 20.25464,3.305232 22.87594,11.464574 37.86873,44.184683 44.61231,97.361425 1.98347,15.64078 1.95839,58.47189 -0.0426,72.77714 -3.55265,25.39783 -16.94449,68.31344 -26.05327,83.49053 -3.53176,5.88462 -10.87326,9.73233 -18.5695,9.73233 -5.34075,0 -6.95049,-0.66537 -10.7133,-4.42818 -6.05054,-6.05054 -6.99284,-12.08265 -4.09592,-26.21989 1.2752,-6.2231 2.79191,-11.6231 3.37046,-12 0.57855,-0.3769 1.35831,-2.48527 1.7328,-4.68527 0.3745,-2.2 2.20972,-9.09999 4.07827,-15.33333 3.82608,-12.76345 6.0855,-27.69957 6.511,-43.0416 0.26768,-9.65166 0.0397,-10.62302 -3.27065,-13.93334 -4.24362,-4.24362 -10.82631,-4.73271 -16.21108,-1.20448 -1.97589,1.29466 -6.70372,7.29136 -10.50628,13.32602 -3.80257,6.03465 -7.65841,12.14539 -8.56853,13.57942 -0.91013,1.43402 -3.23881,5.60732 -5.17486,9.27398 -1.93605,3.66667 -3.96496,6.96667 -4.50868,7.33334 -0.54373,0.36666 -3.18878,4.86666 -5.87789,10 -14.01569,26.75501 -22.71775,38.1513 -36.11713,47.29931 -11.45736,7.82216 -17.90863,9.15584 -46.14388,9.5394 l -25.85612,0.35124 -11.57779,-5.61538 c -16.14506,-7.83057 -26.42589,-18.62103 -37.70549,-39.57457 -1.57905,-2.93334 -4.48629,-7.87141 -6.46053,-10.97351 -1.97424,-3.10209 -3.58952,-6.17118 -3.58952,-6.82019 0,-0.64901 -1.09861,-2.61093 -2.44135,-4.35983 -1.34273,-1.74889 -4.49273,-7.06086 -7,-11.80437 -2.50726,-4.7435 -5.02097,-9.2435 -5.58602,-10 -0.56506,-0.75649 -3.44235,-5.04649 -6.39399,-9.53333 -7.06631,-10.74164 -10.69239,-13.98578 -15.79448,-14.13085 -5.90715,-0.16795 -10.2967,2.56848 -12.89144,8.03647 -3.38877,7.14131 -1.90521,26.50315 3.36456,43.91049 11.09812,36.65981 12.222,41.22887 12.3829,50.34178 0.20655,11.6984 -0.56025,13.93605 -6.05401,17.66667 -6.33559,4.30226 -16.12697,4.12054 -21.86986,-0.40591 z"
       id="path42" /></g></svg>
